<svg xmlns="http://www.w3.org/2000/svg" xmlns:xlink="http://www.w3.org/1999/xlink" width="500" zoomAndPan="magnify" viewBox="0 0 375 374.999991" height="500" preserveAspectRatio="xMidYMid meet" version="1.0"><defs><g/><clipPath id="id1"><path d="M 0.0585938 12.65625 L 374.941406 12.65625 L 374.941406 362.140625 L 0.0585938 362.140625 Z M 0.0585938 12.65625 " clip-rule="nonzero"/></clipPath><clipPath id="id2"><path d="M 20.554688 20.8125 L 354.304688 20.8125 L 354.304688 354.5625 L 20.554688 354.5625 Z M 20.554688 20.8125 " clip-rule="nonzero"/></clipPath><clipPath id="id3"><path d="M 143 211 L 144 211 L 144 211.78125 L 143 211.78125 Z M 143 211 " clip-rule="nonzero"/></clipPath><clipPath id="id4"><path d="M 100.886719 205.03125 L 274.136719 205.03125 L 274.136719 211.78125 L 100.886719 211.78125 Z M 100.886719 205.03125 " clip-rule="nonzero"/></clipPath></defs><rect x="-37.5" width="450" fill="#ffffff" y="-37.499999" height="449.999989" fill-opacity="1"/><rect x="-37.5" width="450" fill="#ffffff" y="-37.499999" height="449.999989" fill-opacity="1"/><rect x="-37.5" width="450" fill="#ffffff" y="-37.499999" height="449.999989" fill-opacity="1"/><path fill="#86aadf" d="M 326.125 255.757812 C 314.503906 262.726562 301.488281 266.394531 288.085938 268.050781 C 283.828125 245.625 274.878906 222.257812 267.335938 204.910156 C 273.144531 197.296875 278.726562 189.511719 284.019531 181.53125 C 287.339844 176.523438 290.800781 171.21875 294.207031 165.6875 C 306.859375 172.125 318.6875 179.617188 329.261719 188.28125 C 355.429688 209.71875 356.957031 237.269531 326.125 255.757812 Z M 270.363281 322.203125 C 246.960938 341.398438 209.625 326.761719 188.347656 311.867188 C 184.449219 309.136719 180.71875 306.203125 177.125 303.125 C 187.519531 293.3125 197.195312 283.128906 205.898438 274.027344 C 226.40625 277.046875 246.382812 278.589844 264.722656 278.589844 C 270.550781 278.589844 276.652344 278.328125 282.847656 277.730469 C 285.417969 295.074219 283.292969 311.601562 270.363281 322.203125 Z M 80.195312 323.335938 C 70.574219 303.085938 81.183594 271.339844 94.660156 242.882812 C 104.527344 247.226562 114.808594 251.1875 125.347656 254.761719 C 135.648438 272.296875 147.597656 288.976562 161.371094 302.863281 C 127.210938 331.207031 92.730469 349.730469 80.195312 323.335938 Z M 58.285156 211.410156 C 36.332031 196.777344 13.972656 174.375 42.660156 153.828125 C 52.503906 146.78125 64.183594 142.035156 76.582031 138.851562 C 81.777344 156.253906 87.578125 171.585938 91.0625 180.894531 C 94.484375 190.039062 98.355469 199.800781 102.710938 209.8125 C 100.445312 214.054688 98.25 218.289062 96.125 222.503906 C 95.058594 224.621094 93.710938 227.304688 92.191406 230.421875 C 80.347656 224.839844 68.976562 218.539062 58.285156 211.410156 Z M 96.8125 43.25 C 132.917969 43.25 163.996094 64.476562 189.847656 93.761719 C 179.507812 103.03125 169.742188 113.136719 160.546875 123.820312 C 148.195312 123.4375 135.933594 123.644531 123.894531 124.429688 C 111.824219 125.222656 98.15625 125.980469 84.558594 127.945312 C 73.769531 92.328125 64.332031 43.25 96.8125 43.25 Z M 262.316406 193.730469 C 254.609375 177.050781 246.355469 160.457031 237.023438 144.539062 C 252.691406 148.578125 268.035156 153.722656 282.507812 160.128906 C 275.835938 172.328125 268.734375 183.910156 262.316406 193.730469 Z M 196.148438 101.175781 C 203.558594 110.230469 210.503906 119.902344 216.980469 129.84375 C 202.511719 127.144531 187.878906 125.363281 173.300781 124.425781 C 173.644531 124.070312 173.980469 123.710938 174.324219 123.355469 C 181.011719 116.425781 188.3125 108.757812 196.148438 101.175781 Z M 109.578125 197.335938 C 104.5625 184.875 99.996094 172.449219 95.652344 160.460938 C 93.96875 155.820312 90.714844 147.128906 87.253906 136.515625 C 105.074219 133.210938 123.683594 132.566406 140 132.566406 C 144.285156 132.566406 148.648438 132.648438 153.058594 132.789062 C 136.605469 153.132812 122.117188 175.195312 109.578125 197.335938 Z M 117.738281 241.136719 C 111.460938 238.808594 105.277344 236.304688 99.195312 233.621094 C 101.75 228.566406 104.328125 223.671875 106.839844 219.039062 C 110.207031 226.375 113.839844 233.785156 117.738281 241.136719 Z M 132.46875 246.234375 C 125.394531 233.550781 119.167969 220.277344 113.523438 206.910156 C 116.214844 202.085938 118.664062 197.734375 120.695312 194.019531 C 132.769531 171.890625 148.027344 151.941406 164.953125 133.351562 C 184.308594 134.554688 204.453125 137.191406 224.3125 141.523438 C 236.960938 162.40625 247.59375 183.875 256.171875 202.90625 C 250.15625 211.675781 245.25 218.171875 242.667969 221.136719 C 237.609375 226.945312 222.886719 243.859375 204.136719 262.984375 C 180.113281 259.199219 155.832031 253.792969 132.46875 246.234375 Z M 140.363281 259.546875 C 158.292969 264.898438 176.714844 269.152344 194.878906 272.269531 C 186.773438 280.261719 178.148438 288.382812 169.382812 296.039062 C 158.347656 285.242188 148.789062 272.863281 140.363281 259.546875 Z M 264.085938 221.054688 C 269.265625 233.324219 277.078125 251 281.140625 268.738281 C 269.175781 269.625 257.039062 269.101562 245.429688 268.058594 C 235.429688 267.15625 225.25 266.015625 214.992188 264.59375 C 230.996094 248.230469 246.492188 231.246094 260.78125 213.324219 C 261.925781 215.964844 263.03125 218.550781 264.085938 221.054688 Z M 277.671875 57.296875 C 324.375 57.296875 310.28125 106.515625 287.203125 151.292969 C 268.835938 143.136719 249.441406 136.898438 229.605469 132.433594 C 221.65625 119.996094 212.925781 108.085938 203.121094 97.011719 C 202.738281 96.578125 202.347656 96.136719 201.945312 95.6875 C 223.796875 75.464844 249.476562 57.296875 277.671875 57.296875 Z M 326.652344 172.996094 C 317.9375 167.113281 308.804688 161.8125 299.355469 157.046875 C 311.339844 136.175781 321.277344 112.730469 319.734375 89.835938 C 316.898438 47.742188 276.300781 40.925781 243.5 56.953125 C 226.390625 65.316406 210.421875 76.160156 195.582031 88.761719 C 170.25 61.851562 123.160156 19.832031 88.457031 32.714844 C 57.792969 44.09375 63.234375 90.285156 73.984375 129.75 C 57.382812 133.054688 41.550781 138.6875 29.617188 148.996094 C 2.210938 172.660156 25.972656 201.484375 48.898438 217.574219 C 60.546875 225.753906 73.667969 233.152344 87.753906 239.746094 C 70.488281 277.007812 43.960938 347.136719 95.277344 347.140625 C 121.253906 347.140625 146.707031 330.359375 169.269531 310.324219 C 189.675781 328.355469 213.785156 340.109375 242.113281 340.109375 C 285.464844 340.109375 293.953125 310.722656 289.519531 276.949219 C 313.042969 273.722656 336.914062 265.164062 351.171875 246.539062 C 373.171875 217.796875 351.90625 190.027344 326.652344 172.996094 " fill-opacity="1" fill-rule="nonzero"/><path fill="#f46a61" d="M 222.78125 194.777344 C 220.882812 211.371094 206.089844 223.871094 190.410156 227.664062 C 173.054688 231.863281 156.808594 218.289062 153.054688 201.785156 C 150.164062 189.066406 154.523438 176.640625 163.527344 168.164062 C 170.957031 155.140625 191.238281 153.207031 203.863281 159.046875 C 217.183594 165.210938 224.410156 180.496094 222.78125 194.777344 " fill-opacity="1" fill-rule="nonzero"/><g clip-path="url(#id1)"><path fill="#2e2e30" d="M 326.851562 205.382812 C 321.15625 204.824219 316.644531 205.785156 311.355469 202.65625 C 306.414062 199.730469 303.839844 195.421875 301.503906 190.351562 C 301.0625 189.390625 299.53125 189.894531 299.554688 190.882812 C 299.699219 197.195312 304.320312 202.644531 309.511719 205.804688 C 314.238281 208.6875 322.5 211.183594 327.449219 207.589844 C 328.425781 206.882812 328.054688 205.5 326.851562 205.382812 Z M 220.453125 225.042969 C 213.371094 227.636719 207.296875 232.105469 199.898438 234.167969 C 192.046875 236.355469 184.300781 236.300781 176.238281 236.300781 C 174.800781 236.300781 174.5 238.425781 175.898438 238.808594 C 183.984375 241.03125 192.941406 240.148438 200.960938 238.015625 C 208.214844 236.085938 217.035156 232.835938 221.6875 226.648438 C 222.253906 225.898438 221.308594 224.730469 220.453125 225.042969 Z M 139.941406 14.015625 C 134.976562 12.1875 126.707031 11.613281 122.949219 16.117188 C 122.515625 16.644531 122.757812 17.601562 123.546875 17.566406 C 126.203125 17.449219 128.695312 16.425781 131.375 16.375 C 134.65625 16.320312 138.035156 17.15625 140.90625 18.742188 C 145.523438 21.296875 147.441406 28.5 152.664062 29.503906 C 153.691406 29.699219 154.324219 28.761719 153.933594 27.851562 C 151.417969 21.984375 145.992188 16.242188 139.941406 14.015625 Z M 96.800781 52.964844 C 88.890625 54.113281 83.449219 64.1875 81.65625 71.132812 C 80.027344 77.445312 79.402344 89.738281 86.023438 93.589844 C 86.910156 94.105469 88.058594 93.445312 88.058594 92.417969 C 88.058594 89.378906 86.4375 86.597656 85.878906 83.617188 C 85.179688 79.902344 85.359375 76.0625 86.246094 72.398438 C 87.085938 68.90625 88.535156 65.578125 90.640625 62.660156 C 92.753906 59.730469 95.738281 57.742188 97.972656 54.972656 C 98.757812 54.003906 98.011719 52.789062 96.800781 52.964844 Z M 370.910156 209.601562 C 370.25 208.289062 368.269531 209.222656 368.601562 210.574219 C 370.964844 220.234375 371.992188 229.679688 369.542969 239.460938 C 368.421875 243.964844 366.679688 248.277344 364.382812 252.308594 C 362.023438 256.460938 358.671875 259.929688 356.300781 264.046875 C 355.722656 265.050781 356.859375 266.089844 357.839844 265.582031 C 366.582031 261.023438 371.519531 248.902344 373.570312 239.824219 C 375.816406 229.914062 375.546875 218.8125 370.910156 209.601562 Z M 327.785156 55.722656 C 319.863281 45.019531 307.351562 38.003906 294.09375 36.90625 C 292.960938 36.8125 292.746094 38.609375 293.828125 38.875 C 306.410156 41.964844 318.734375 48.082031 326.011719 59.226562 C 330.042969 65.398438 331.9375 72.484375 332.609375 79.773438 C 333.25 86.746094 331.570312 94.359375 333.019531 101.140625 C 333.273438 102.320312 334.871094 102.121094 335.21875 101.140625 C 337.777344 93.933594 336.875 83.796875 335.839844 76.324219 C 334.8125 68.882812 332.269531 61.78125 327.785156 55.722656 Z M 276.976562 341.113281 C 269.015625 344.953125 261.546875 349.136719 252.757812 350.859375 C 243.824219 352.609375 234.464844 352.316406 225.605469 350.296875 C 223.996094 349.929688 223.367188 352.242188 224.925781 352.761719 C 241.753906 358.367188 265.480469 356.417969 278.304688 342.828125 C 279.179688 341.898438 278.082031 340.578125 276.976562 341.113281 Z M 202.699219 348.972656 C 197.464844 345.796875 191.675781 343.777344 186.566406 340.328125 C 181.082031 336.625 176.851562 331.835938 171.832031 327.628906 C 171.09375 327.011719 170.066406 327.769531 170.5 328.65625 C 175.65625 339.148438 190.433594 349.898438 202.171875 350.921875 C 203.25 351.015625 203.53125 349.472656 202.699219 348.972656 Z M 84.78125 357.917969 C 70.234375 358.511719 59.632812 350.769531 55.542969 336.671875 C 51.253906 321.878906 55.238281 306.71875 54.023438 291.707031 C 53.921875 290.4375 51.96875 289.972656 51.664062 291.382812 C 49.679688 300.609375 49.148438 310.640625 49.050781 320.054688 C 48.972656 328.078125 49.851562 336.113281 53.070312 343.53125 C 58.003906 354.90625 72.359375 367.351562 85.308594 359.867188 C 86.1875 359.363281 85.835938 357.875 84.78125 357.917969 Z M 21.734375 210.453125 C 22.492188 211.125 21.875 212.394531 20.929688 212.398438 C 11.824219 212.414062 5.285156 202.152344 2.539062 194.597656 C -1.789062 182.660156 0.375 169.945312 2.824219 157.875 C 3.136719 156.332031 5.734375 156.683594 5.578125 158.246094 C 4.53125 168.804688 2.976562 180.253906 5.996094 190.617188 C 7.304688 195.101562 9.539062 199.410156 12.640625 202.917969 C 15.289062 205.921875 18.773438 207.824219 21.734375 210.453125 " fill-opacity="1" fill-rule="nonzero"/></g><path fill="#f6b737" d="M 133.71875 164.421875 C 129.457031 162.003906 124.492188 160.269531 119.648438 161.894531 C 117.625 162.570312 115.28125 164.066406 114.042969 166.003906 C 110.683594 170.359375 110.304688 177.355469 112.445312 182.832031 C 116.535156 193.296875 126.160156 194.09375 134.539062 187.796875 C 138.605469 184.738281 141.992188 180.414062 141.84375 175.085938 C 141.699219 169.941406 137.867188 166.773438 133.71875 164.421875 Z M 339.324219 172.617188 C 325.011719 153.867188 297.472656 175.886719 309.671875 192.003906 C 320.941406 206.890625 352.570312 189.96875 339.324219 172.617188 Z M 142.328125 55.332031 C 133.902344 62.179688 120.082031 64.242188 114.882812 52.347656 C 112.132812 46.0625 113.808594 39.824219 117.796875 35.347656 C 122.511719 25.671875 133.152344 21.128906 143.0625 28.546875 C 152.625 35.699219 151.132812 48.175781 142.328125 55.332031 " fill-opacity="1" fill-rule="nonzero"/><path fill="#ffffff" d="M 129.410156 166.082031 C 128.414062 166.035156 127.722656 167.484375 128.546875 168.15625 C 130.460938 169.710938 132.429688 170.714844 133.597656 173.035156 C 134.613281 175.058594 134.371094 177.414062 135.300781 179.390625 C 135.523438 179.867188 136.195312 179.871094 136.535156 179.550781 C 138.664062 177.515625 137.578125 173.660156 136.371094 171.414062 C 135.015625 168.886719 132.433594 166.21875 129.410156 166.082031 Z M 323.585938 172.410156 C 324.113281 171.96875 323.835938 170.972656 323.171875 170.839844 C 312.019531 168.605469 305.707031 191.210938 319.753906 191.234375 C 320.589844 191.234375 320.886719 190.261719 320.394531 189.683594 C 319.421875 188.53125 318.191406 187.792969 317.144531 186.734375 C 315.117188 184.691406 315.300781 181.71875 316.535156 179.269531 C 318.175781 176 320.929688 174.632812 323.585938 172.410156 Z M 126.648438 31.230469 C 122.125 34.214844 118.132812 37.992188 118.347656 43.863281 C 118.480469 47.390625 120.851562 53.175781 125.234375 52.242188 C 125.910156 52.097656 126.097656 51.316406 125.835938 50.769531 C 124.429688 47.878906 121.859375 46.566406 121.988281 42.867188 C 122.121094 39.003906 124.925781 35.082031 127.652344 32.539062 C 128.335938 31.902344 127.441406 30.707031 126.648438 31.230469 Z M 202.992188 213.402344 C 199.558594 213.777344 196.390625 215.398438 192.984375 216.09375 C 188.804688 216.945312 184.558594 217.175781 180.3125 216.886719 C 179.070312 216.804688 178.796875 218.800781 180.015625 219.0625 C 187.191406 220.59375 198.121094 220.925781 203.820312 215.398438 C 204.496094 214.746094 204.03125 213.289062 202.992188 213.402344 Z M 174.046875 167.472656 C 168.949219 173.941406 165.847656 181.71875 164.675781 189.839844 C 164.0625 194.082031 163.570312 198.738281 164.886719 202.898438 C 166.160156 206.933594 169.34375 209.785156 171.585938 213.257812 C 172.109375 214.066406 171.246094 214.890625 170.4375 214.75 C 160.265625 212.996094 158.785156 199.8125 159.863281 191.613281 C 161.171875 181.707031 164.511719 171.980469 172.8125 165.878906 C 173.832031 165.128906 174.6875 166.660156 174.046875 167.472656 " fill-opacity="1" fill-rule="nonzero"/><path fill="#9dafff" d="M 349.632812 187.6875 C 349.632812 190.339844 349.566406 192.992188 349.4375 195.644531 C 349.304688 198.296875 349.109375 200.941406 348.851562 203.585938 C 348.589844 206.226562 348.265625 208.859375 347.875 211.484375 C 347.488281 214.113281 347.035156 216.726562 346.515625 219.332031 C 345.996094 221.933594 345.417969 224.523438 344.769531 227.097656 C 344.125 229.671875 343.417969 232.230469 342.648438 234.769531 C 341.878906 237.3125 341.042969 239.832031 340.152344 242.332031 C 339.257812 244.828125 338.300781 247.304688 337.285156 249.757812 C 336.269531 252.210938 335.195312 254.636719 334.058594 257.035156 C 332.925781 259.4375 331.730469 261.808594 330.480469 264.148438 C 329.226562 266.488281 327.921875 268.796875 326.554688 271.074219 C 325.191406 273.351562 323.769531 275.59375 322.296875 277.800781 C 320.820312 280.007812 319.292969 282.179688 317.710938 284.308594 C 316.128906 286.441406 314.496094 288.535156 312.8125 290.585938 C 311.128906 292.636719 309.394531 294.648438 307.613281 296.613281 C 305.832031 298.582031 304 300.503906 302.125 302.378906 C 300.246094 304.257812 298.324219 306.085938 296.359375 307.871094 C 294.390625 309.652344 292.382812 311.386719 290.328125 313.070312 C 288.277344 314.753906 286.1875 316.386719 284.054688 317.96875 C 281.921875 319.550781 279.75 321.078125 277.542969 322.550781 C 275.335938 324.027344 273.09375 325.445312 270.816406 326.8125 C 268.542969 328.175781 266.234375 329.484375 263.890625 330.734375 C 261.550781 331.988281 259.179688 333.179688 256.78125 334.316406 C 254.378906 335.449219 251.953125 336.527344 249.5 337.542969 C 247.050781 338.558594 244.574219 339.511719 242.074219 340.40625 C 239.574219 341.300781 237.054688 342.132812 234.515625 342.902344 C 231.972656 343.675781 229.417969 344.382812 226.839844 345.027344 C 224.265625 345.671875 221.675781 346.253906 219.074219 346.773438 C 216.46875 347.289062 213.855469 347.742188 211.230469 348.132812 C 208.605469 348.523438 205.96875 348.847656 203.328125 349.109375 C 200.6875 349.367188 198.039062 349.5625 195.386719 349.691406 C 192.738281 349.824219 190.085938 349.886719 187.429688 349.886719 C 184.773438 349.886719 182.121094 349.824219 179.472656 349.691406 C 176.820312 349.5625 174.171875 349.367188 171.53125 349.109375 C 168.890625 348.847656 166.253906 348.523438 163.628906 348.132812 C 161.003906 347.742188 158.390625 347.289062 155.785156 346.773438 C 153.183594 346.253906 150.59375 345.671875 148.019531 345.027344 C 145.441406 344.382812 142.886719 343.675781 140.34375 342.902344 C 137.804688 342.132812 135.285156 341.300781 132.785156 340.40625 C 130.285156 339.511719 127.808594 338.558594 125.359375 337.542969 C 122.90625 336.527344 120.480469 335.449219 118.078125 334.316406 C 115.679688 333.179688 113.308594 331.988281 110.96875 330.734375 C 108.625 329.484375 106.316406 328.175781 104.039062 326.8125 C 101.765625 325.445312 99.523438 324.027344 97.316406 322.550781 C 95.109375 321.078125 92.9375 319.550781 90.804688 317.96875 C 88.671875 316.386719 86.582031 314.753906 84.53125 313.070312 C 82.476562 311.386719 80.46875 309.652344 78.5 307.871094 C 76.535156 306.085938 74.613281 304.257812 72.734375 302.378906 C 70.859375 300.503906 69.027344 298.582031 67.246094 296.613281 C 65.460938 294.648438 63.730469 292.636719 62.046875 290.585938 C 60.363281 288.535156 58.730469 286.441406 57.148438 284.308594 C 55.566406 282.179688 54.039062 280.007812 52.5625 277.800781 C 51.089844 275.59375 49.667969 273.351562 48.304688 271.074219 C 46.9375 268.796875 45.632812 266.488281 44.378906 264.148438 C 43.128906 261.808594 41.933594 259.4375 40.800781 257.035156 C 39.664062 254.636719 38.589844 252.210938 37.574219 249.757812 C 36.558594 247.304688 35.601562 244.828125 34.707031 242.332031 C 33.816406 239.832031 32.980469 237.3125 32.210938 234.769531 C 31.441406 232.230469 30.734375 229.671875 30.089844 227.097656 C 29.441406 224.523438 28.863281 221.933594 28.34375 219.332031 C 27.824219 216.726562 27.371094 214.113281 26.984375 211.484375 C 26.59375 208.859375 26.269531 206.226562 26.007812 203.585938 C 25.746094 200.941406 25.554688 198.296875 25.421875 195.644531 C 25.292969 192.992188 25.226562 190.339844 25.226562 187.6875 C 25.226562 185.03125 25.292969 182.378906 25.421875 179.726562 C 25.554688 177.074219 25.746094 174.429688 26.007812 171.789062 C 26.269531 169.144531 26.59375 166.511719 26.984375 163.886719 C 27.371094 161.261719 27.824219 158.644531 28.34375 156.042969 C 28.863281 153.4375 29.441406 150.847656 30.089844 148.273438 C 30.734375 145.699219 31.441406 143.140625 32.210938 140.601562 C 32.980469 138.0625 33.816406 135.542969 34.707031 133.042969 C 35.601562 130.542969 36.558594 128.066406 37.574219 125.613281 C 38.589844 123.160156 39.664062 120.734375 40.800781 118.335938 C 41.933594 115.9375 43.128906 113.566406 44.378906 111.222656 C 45.632812 108.882812 46.9375 106.574219 48.304688 104.296875 C 49.667969 102.019531 51.089844 99.777344 52.5625 97.570312 C 54.039062 95.363281 55.566406 93.195312 57.148438 91.0625 C 58.730469 88.929688 60.363281 86.839844 62.046875 84.785156 C 63.730469 82.734375 65.460938 80.722656 67.246094 78.757812 C 69.027344 76.789062 70.859375 74.867188 72.734375 72.992188 C 74.613281 71.113281 76.535156 69.285156 78.5 67.503906 C 80.46875 65.71875 82.476562 63.984375 84.53125 62.300781 C 86.582031 60.617188 88.671875 58.984375 90.804688 57.402344 C 92.9375 55.824219 95.109375 54.292969 97.316406 52.820312 C 99.523438 51.34375 101.765625 49.925781 104.039062 48.558594 C 106.316406 47.195312 108.625 45.886719 110.96875 44.636719 C 113.308594 43.386719 115.679688 42.191406 118.078125 41.058594 C 120.480469 39.921875 122.90625 38.847656 125.359375 37.832031 C 127.808594 36.816406 130.285156 35.859375 132.785156 34.964844 C 135.285156 34.070312 137.804688 33.238281 140.34375 32.46875 C 142.886719 31.699219 145.441406 30.988281 148.019531 30.34375 C 150.59375 29.699219 153.183594 29.117188 155.785156 28.601562 C 158.390625 28.082031 161.003906 27.628906 163.628906 27.238281 C 166.253906 26.851562 168.890625 26.523438 171.53125 26.265625 C 174.171875 26.003906 176.820312 25.808594 179.472656 25.679688 C 182.121094 25.546875 184.773438 25.484375 187.429688 25.484375 C 190.085938 25.484375 192.738281 25.546875 195.386719 25.679688 C 198.039062 25.808594 200.6875 26.003906 203.328125 26.265625 C 205.96875 26.523438 208.605469 26.851562 211.230469 27.238281 C 213.855469 27.628906 216.46875 28.082031 219.074219 28.601562 C 221.675781 29.117188 224.265625 29.699219 226.839844 30.34375 C 229.417969 30.988281 231.972656 31.699219 234.515625 32.46875 C 237.054688 33.238281 239.574219 34.070312 242.074219 34.964844 C 244.574219 35.859375 247.050781 36.816406 249.5 37.832031 C 251.953125 38.847656 254.378906 39.921875 256.78125 41.058594 C 259.179688 42.191406 261.550781 43.386719 263.890625 44.636719 C 266.234375 45.886719 268.542969 47.195312 270.820312 48.558594 C 273.09375 49.925781 275.335938 51.34375 277.542969 52.820312 C 279.75 54.292969 281.921875 55.824219 284.054688 57.402344 C 286.1875 58.984375 288.277344 60.617188 290.328125 62.300781 C 292.382812 63.984375 294.390625 65.71875 296.359375 67.503906 C 298.324219 69.285156 300.246094 71.113281 302.125 72.992188 C 304 74.867188 305.832031 76.789062 307.613281 78.757812 C 309.394531 80.722656 311.128906 82.734375 312.8125 84.785156 C 314.496094 86.839844 316.128906 88.929688 317.710938 91.0625 C 319.292969 93.195312 320.820312 95.363281 322.296875 97.570312 C 323.769531 99.777344 325.191406 102.019531 326.554688 104.296875 C 327.921875 106.574219 329.226562 108.882812 330.480469 111.222656 C 331.730469 113.566406 332.925781 115.9375 334.058594 118.335938 C 335.195312 120.734375 336.269531 123.160156 337.285156 125.613281 C 338.300781 128.066406 339.257812 130.542969 340.152344 133.042969 C 341.042969 135.542969 341.878906 138.0625 342.648438 140.601562 C 343.417969 143.140625 344.125 145.699219 344.769531 148.273438 C 345.417969 150.847656 345.996094 153.4375 346.515625 156.042969 C 347.035156 158.644531 347.488281 161.261719 347.875 163.886719 C 348.265625 166.511719 348.589844 169.144531 348.851562 171.789062 C 349.109375 174.429688 349.304688 177.074219 349.4375 179.726562 C 349.566406 182.378906 349.632812 185.03125 349.632812 187.6875 Z M 349.632812 187.6875 " fill-opacity="1" fill-rule="nonzero"/><path fill="#ffffff" d="M 187.429688 327.859375 C 185.960938 327.859375 184.492188 327.859375 183.023438 327.792969 L 183.222656 321.921875 C 187.964844 322.054688 192.835938 321.988281 197.574219 321.585938 L 198.042969 327.394531 C 194.503906 327.726562 190.96875 327.859375 187.429688 327.859375 Z M 177.015625 327.460938 C 172.078125 327.125 167.070312 326.460938 162.199219 325.589844 L 163.265625 319.851562 C 167.9375 320.71875 172.746094 321.320312 177.484375 321.652344 Z M 203.917969 326.859375 L 203.25 321.050781 C 207.988281 320.519531 212.726562 319.652344 217.402344 318.648438 L 218.667969 324.390625 C 213.863281 325.457031 208.921875 326.257812 203.917969 326.859375 Z M 156.324219 324.390625 C 151.453125 323.320312 146.644531 321.921875 141.90625 320.316406 L 143.773438 314.777344 C 148.3125 316.3125 152.917969 317.648438 157.59375 318.714844 Z M 224.476562 322.855469 L 222.941406 317.179688 C 227.546875 315.914062 232.085938 314.378906 236.558594 312.640625 L 238.695312 318.117188 C 234.089844 319.984375 229.28125 321.585938 224.476562 322.855469 Z M 136.230469 318.183594 C 131.625 316.378906 127.019531 314.3125 122.617188 311.972656 L 125.351562 306.769531 C 129.558594 308.972656 133.964844 310.972656 138.433594 312.707031 Z M 244.234375 315.847656 L 241.832031 310.507812 C 246.167969 308.570312 250.507812 306.367188 254.582031 303.964844 L 257.515625 309.039062 C 253.246094 311.507812 248.773438 313.84375 244.234375 315.847656 Z M 117.34375 309.105469 C 113.003906 306.632812 108.796875 303.898438 104.792969 300.894531 L 108.265625 296.15625 C 112.136719 298.957031 116.140625 301.628906 120.277344 303.964844 Z M 262.65625 305.96875 L 259.519531 301.027344 C 263.523438 298.492188 267.464844 295.6875 271.199219 292.683594 L 274.871094 297.222656 C 270.933594 300.359375 266.863281 303.230469 262.65625 305.96875 Z M 100.121094 297.289062 C 96.25 294.21875 92.445312 290.816406 88.90625 287.34375 L 93.046875 283.207031 C 96.449219 286.542969 100.054688 289.746094 103.792969 292.75 Z M 279.410156 293.417969 L 275.539062 289.011719 C 279.144531 285.875 282.613281 282.539062 285.820312 279 L 290.089844 283.003906 C 286.753906 286.609375 283.148438 290.148438 279.410156 293.417969 Z M 84.769531 283.070312 C 81.363281 279.402344 78.160156 275.597656 75.15625 271.589844 L 79.828125 268.054688 C 82.699219 271.859375 85.769531 275.597656 89.039062 279.066406 Z M 294.164062 278.464844 L 289.691406 274.660156 C 292.761719 271.058594 295.699219 267.183594 298.433594 263.246094 L 303.242188 266.585938 C 300.4375 270.789062 297.367188 274.726562 294.164062 278.464844 Z M 71.683594 266.785156 C 68.882812 262.644531 66.277344 258.375 63.875 253.96875 L 69.015625 251.164062 C 71.285156 255.371094 73.753906 259.507812 76.492188 263.449219 Z M 306.511719 261.644531 L 301.503906 258.574219 C 304.042969 254.503906 306.378906 250.296875 308.449219 246.027344 L 313.71875 248.5625 C 311.585938 252.96875 309.113281 257.441406 306.511719 261.644531 Z M 61.136719 248.628906 C 58.9375 244.15625 57 239.484375 55.332031 234.8125 L 60.871094 232.875 C 62.472656 237.347656 64.34375 241.820312 66.410156 246.09375 Z M 316.191406 243.023438 L 310.785156 240.6875 C 312.652344 236.28125 314.320312 231.742188 315.722656 227.203125 L 321.332031 228.9375 C 319.929688 233.742188 318.191406 238.484375 316.191406 243.023438 Z M 53.460938 229.136719 C 51.992188 224.398438 50.792969 219.527344 49.792969 214.585938 L 55.53125 213.453125 C 56.464844 218.125 57.601562 222.796875 59.003906 227.335938 Z M 323 223.195312 L 317.324219 221.730469 C 318.527344 217.121094 319.527344 212.382812 320.195312 207.644531 L 326.003906 208.511719 C 325.269531 213.453125 324.265625 218.390625 323 223.195312 Z M 48.789062 208.710938 C 48.054688 203.773438 47.589844 198.765625 47.320312 193.828125 L 53.195312 193.558594 C 53.394531 198.367188 53.863281 203.105469 54.597656 207.84375 Z M 326.804688 202.636719 L 320.996094 202.039062 C 321.53125 197.296875 321.730469 192.492188 321.730469 187.6875 L 321.730469 187.417969 L 327.605469 187.417969 L 327.605469 187.6875 C 327.605469 192.625 327.335938 197.699219 326.804688 202.636719 Z M 53.128906 187.820312 L 47.253906 187.820312 L 47.253906 187.6875 C 47.253906 182.746094 47.523438 177.742188 48.054688 172.867188 L 53.863281 173.46875 C 53.394531 178.140625 53.128906 182.945312 53.128906 187.6875 Z M 321.597656 181.613281 C 321.398438 176.804688 320.929688 172.066406 320.195312 167.328125 L 326.003906 166.460938 C 326.738281 171.398438 327.203125 176.40625 327.472656 181.34375 Z M 54.597656 167.792969 L 48.789062 166.925781 C 49.523438 161.988281 50.527344 157.046875 51.792969 152.242188 L 57.46875 153.710938 C 56.265625 158.316406 55.265625 163.054688 54.597656 167.792969 Z M 319.195312 161.71875 C 318.257812 157.046875 317.125 152.375 315.65625 147.835938 L 321.261719 146.101562 C 322.730469 150.839844 324 155.710938 324.933594 160.585938 Z M 59.003906 148.238281 L 53.394531 146.5 C 54.863281 141.761719 56.601562 137.023438 58.535156 132.417969 L 63.941406 134.753906 C 62.074219 139.09375 60.40625 143.632812 59.003906 148.238281 Z M 313.855469 142.363281 C 312.253906 137.890625 310.382812 133.417969 308.3125 129.144531 L 313.585938 126.609375 C 315.789062 131.082031 317.726562 135.753906 319.394531 140.425781 Z M 66.34375 129.480469 L 61.070312 126.945312 C 63.207031 122.472656 65.675781 118.066406 68.28125 113.792969 L 73.289062 116.863281 C 70.683594 121.003906 68.414062 125.207031 66.34375 129.480469 Z M 305.710938 124.007812 C 303.441406 119.800781 300.972656 115.664062 298.234375 111.792969 L 303.039062 108.453125 C 305.84375 112.59375 308.449219 116.863281 310.851562 121.203125 Z M 76.359375 112.125 L 71.484375 108.855469 C 74.289062 104.714844 77.359375 100.710938 80.5625 96.972656 L 85.035156 100.777344 C 81.964844 104.316406 79.027344 108.1875 76.359375 112.125 Z M 294.898438 107.117188 C 292.027344 103.3125 288.957031 99.574219 285.6875 96.105469 L 289.957031 92.101562 C 293.363281 95.769531 296.566406 99.574219 299.570312 103.582031 Z M 88.90625 96.4375 L 84.632812 92.433594 C 88.039062 88.761719 91.644531 85.292969 95.382812 82.019531 L 99.253906 86.425781 C 95.582031 89.5625 92.109375 92.96875 88.90625 96.4375 Z M 281.679688 92.035156 C 278.277344 88.695312 274.671875 85.492188 270.933594 82.488281 L 274.605469 77.882812 C 278.476562 80.953125 282.28125 84.289062 285.820312 87.828125 Z M 103.589844 82.753906 L 99.921875 78.214844 C 103.792969 75.078125 107.929688 72.140625 112.070312 69.472656 L 115.207031 74.410156 C 111.132812 77.015625 107.261719 79.816406 103.589844 82.753906 Z M 266.460938 79.082031 C 262.589844 76.28125 258.519531 73.609375 254.445312 71.273438 L 257.382812 66.199219 C 261.65625 68.671875 265.925781 71.40625 269.933594 74.34375 Z M 120.078125 71.40625 L 117.140625 66.335938 C 121.480469 63.863281 125.953125 61.527344 130.492188 59.527344 L 132.894531 64.867188 C 128.488281 66.867188 124.21875 69.070312 120.078125 71.40625 Z M 249.375 68.46875 C 245.167969 66.269531 240.761719 64.265625 236.289062 62.53125 L 238.425781 57.054688 C 243.03125 58.859375 247.636719 60.929688 252.042969 63.265625 Z M 138.101562 62.730469 L 135.964844 57.257812 C 140.570312 55.453125 145.378906 53.851562 150.183594 52.515625 L 151.71875 58.191406 C 147.113281 59.394531 142.574219 60.929688 138.101562 62.730469 Z M 230.882812 60.527344 C 226.34375 58.992188 221.738281 57.65625 217.066406 56.589844 L 218.335938 50.847656 C 223.207031 51.917969 228.011719 53.316406 232.753906 54.921875 Z M 157.324219 56.722656 L 155.992188 50.980469 C 160.796875 49.847656 165.800781 48.980469 170.742188 48.445312 L 171.410156 54.253906 C 166.671875 54.855469 161.929688 55.722656 157.324219 56.722656 Z M 211.460938 55.519531 C 206.789062 54.652344 201.980469 54.050781 197.242188 53.71875 L 197.640625 47.84375 C 202.582031 48.179688 207.589844 48.847656 212.527344 49.714844 Z M 177.148438 53.785156 L 176.683594 47.910156 C 181.621094 47.511719 186.695312 47.445312 191.636719 47.578125 L 191.433594 53.453125 C 186.761719 53.25 181.890625 53.386719 177.148438 53.785156 Z M 177.148438 53.785156 " fill-opacity="1" fill-rule="nonzero"/><g clip-path="url(#id2)"><path fill="#ffffff" d="M 187.429688 354.5625 C 142.839844 354.5625 100.988281 337.207031 69.480469 305.699219 C 37.910156 274.128906 20.554688 232.273438 20.554688 187.6875 C 20.554688 143.097656 37.910156 101.246094 69.414062 69.738281 C 100.988281 38.167969 142.839844 20.8125 187.429688 20.8125 C 232.019531 20.8125 273.871094 38.167969 305.375 69.671875 C 336.882812 101.179688 354.238281 143.097656 354.238281 187.621094 C 354.238281 232.140625 336.882812 274.0625 305.375 305.566406 C 273.871094 337.074219 232.019531 354.5625 187.429688 354.5625 Z M 187.429688 30.15625 C 145.308594 30.15625 105.726562 46.578125 76.023438 76.28125 C 46.320312 105.984375 29.898438 145.566406 29.898438 187.6875 C 29.898438 229.804688 46.320312 269.320312 76.023438 299.023438 C 105.792969 328.796875 145.378906 345.148438 187.363281 345.148438 C 229.347656 345.148438 269.066406 328.796875 298.769531 299.023438 C 328.472656 269.253906 344.894531 229.738281 344.894531 187.6875 C 344.894531 145.632812 328.539062 105.984375 298.769531 76.28125 C 269.066406 46.578125 229.480469 30.15625 187.429688 30.15625 Z M 187.429688 30.15625 " fill-opacity="1" fill-rule="nonzero"/></g><g fill="#ffffff" fill-opacity="1"><g transform="translate(92.158189, 154.149403)"><g><path d="M 4.6875 0.265625 C 2.5625 0.265625 1.007812 -0.398438 0.03125 -1.734375 C -0.945312 -3.066406 -1.160156 -4.898438 -0.609375 -7.234375 L 2.484375 -20.703125 C 3.160156 -23.609375 4.242188 -25.796875 5.734375 -27.265625 C 7.234375 -28.742188 9.21875 -29.484375 11.6875 -29.484375 C 13.84375 -29.484375 15.441406 -28.890625 16.484375 -27.703125 C 17.523438 -26.523438 17.785156 -24.828125 17.265625 -22.609375 L 16.109375 -17.578125 L 10.296875 -17.578125 L 11.3125 -21.890625 C 11.5 -22.734375 11.53125 -23.3125 11.40625 -23.625 C 11.28125 -23.945312 10.96875 -24.109375 10.46875 -24.109375 C 9.945312 -24.109375 9.546875 -23.925781 9.265625 -23.5625 C 8.984375 -23.195312 8.757812 -22.664062 8.59375 -21.96875 L 5.203125 -7.3125 C 5.046875 -6.539062 5.035156 -5.976562 5.171875 -5.625 C 5.304688 -5.269531 5.597656 -5.09375 6.046875 -5.09375 C 6.953125 -5.09375 7.578125 -5.832031 7.921875 -7.3125 L 9.140625 -12.578125 L 15.03125 -12.578125 L 13.765625 -7.078125 C 12.628906 -2.179688 9.601562 0.265625 4.6875 0.265625 Z M 4.6875 0.265625 "/></g></g></g><g fill="#ffffff" fill-opacity="1"><g transform="translate(108.952339, 154.149403)"><g><path d="M -2.3125 0 L 4.421875 -29.203125 L 10.0625 -29.203125 L 3.328125 0 Z M -2.3125 0 "/></g></g></g><g fill="#ffffff" fill-opacity="1"><g transform="translate(117.349457, 154.149403)"><g><path d="M -2.046875 0 L 4.6875 -29.203125 L 16.390625 -29.203125 L 15.09375 -23.5625 L 9.34375 -23.5625 L 8.015625 -17.890625 L 13.53125 -17.890625 L 12.265625 -12.375 L 6.765625 -12.375 L 5.203125 -5.671875 L 11.3125 -5.671875 L 10.03125 0 Z M -2.046875 0 "/></g></g></g><g fill="#ffffff" fill-opacity="1"><g transform="translate(132.035856, 154.149403)"><g><path d="M -2.046875 0 L 4.6875 -29.203125 L 10.703125 -29.203125 L 10.15625 -15.234375 L 13.390625 -29.203125 L 19.03125 -29.203125 L 12.3125 0 L 6.59375 0 L 7.03125 -14.625 L 3.671875 0 Z M -2.046875 0 "/></g></g></g><g fill="#ffffff" fill-opacity="1"><g transform="translate(149.645915, 154.149403)"><g><path d="M 4.6875 0.265625 C 2.5625 0.265625 1.007812 -0.398438 0.03125 -1.734375 C -0.945312 -3.066406 -1.160156 -4.898438 -0.609375 -7.234375 L 2.484375 -20.703125 C 3.160156 -23.609375 4.242188 -25.796875 5.734375 -27.265625 C 7.234375 -28.742188 9.21875 -29.484375 11.6875 -29.484375 C 13.84375 -29.484375 15.441406 -28.890625 16.484375 -27.703125 C 17.523438 -26.523438 17.785156 -24.828125 17.265625 -22.609375 L 16.109375 -17.578125 L 10.296875 -17.578125 L 11.3125 -21.890625 C 11.5 -22.734375 11.53125 -23.3125 11.40625 -23.625 C 11.28125 -23.945312 10.96875 -24.109375 10.46875 -24.109375 C 9.945312 -24.109375 9.546875 -23.925781 9.265625 -23.5625 C 8.984375 -23.195312 8.757812 -22.664062 8.59375 -21.96875 L 5.203125 -7.3125 C 5.046875 -6.539062 5.035156 -5.976562 5.171875 -5.625 C 5.304688 -5.269531 5.597656 -5.09375 6.046875 -5.09375 C 6.953125 -5.09375 7.578125 -5.832031 7.921875 -7.3125 L 9.140625 -12.578125 L 15.03125 -12.578125 L 13.765625 -7.078125 C 12.628906 -2.179688 9.601562 0.265625 4.6875 0.265625 Z M 4.6875 0.265625 "/></g></g></g><g fill="#ffffff" fill-opacity="1"><g transform="translate(166.440067, 154.149403)"><g><path d="M -2.3125 0 L 4.421875 -29.203125 L 10.0625 -29.203125 L 3.328125 0 Z M -2.3125 0 "/></g></g></g><g fill="#ffffff" fill-opacity="1"><g transform="translate(174.837186, 154.149403)"><g><path d="M -2.828125 0 L 6.734375 -29.203125 L 16.625 -29.203125 L 12.671875 0 L 7.140625 0 L 7.8125 -4.71875 L 4.28125 -4.71875 L 2.859375 0 Z M 5.8125 -9.390625 L 8.46875 -9.390625 L 10.578125 -24.234375 L 10.296875 -24.234375 Z M 5.8125 -9.390625 "/></g></g></g><g fill="#ffffff" fill-opacity="1"><g transform="translate(192.005296, 154.149403)"><g/></g></g><g fill="#ffffff" fill-opacity="1"><g transform="translate(200.640378, 154.149403)"><g><path d="M -2.046875 0 L 4.6875 -29.203125 L 16.390625 -29.203125 L 15.09375 -23.5625 L 9.34375 -23.5625 L 8.015625 -17.890625 L 13.53125 -17.890625 L 12.265625 -12.375 L 6.765625 -12.375 L 5.203125 -5.671875 L 11.3125 -5.671875 L 10.03125 0 Z M -2.046875 0 "/></g></g></g><g fill="#ffffff" fill-opacity="1"><g transform="translate(215.326774, 154.149403)"><g><path d="M 4.6875 -29.203125 L 12.75 -29.203125 C 14.832031 -29.203125 16.265625 -28.625 17.046875 -27.46875 C 17.828125 -26.3125 17.96875 -24.601562 17.46875 -22.34375 L 14.375 -8.671875 C 13.71875 -5.796875 12.710938 -3.628906 11.359375 -2.171875 C 10.015625 -0.722656 8.164062 0 5.8125 0 L -2.046875 0 Z M 6.046875 -5.171875 C 7.109375 -5.171875 7.765625 -5.691406 8.015625 -6.734375 L 11.484375 -21.796875 C 11.648438 -22.453125 11.710938 -22.941406 11.671875 -23.265625 C 11.640625 -23.597656 11.503906 -23.820312 11.265625 -23.9375 C 11.023438 -24.050781 10.625 -24.109375 10.0625 -24.109375 L 9.421875 -24.109375 L 5.03125 -5.171875 Z M 6.046875 -5.171875 "/></g></g></g><g fill="#ffffff" fill-opacity="1"><g transform="translate(232.766848, 154.149403)"><g><path d="M 4.6875 0.265625 C 2.28125 0.265625 0.65625 -0.410156 -0.1875 -1.765625 C -1.039062 -3.128906 -1.160156 -5.144531 -0.546875 -7.8125 L 4.390625 -29.203125 L 10.0625 -29.203125 L 5.171875 -8.0625 C 4.960938 -7.125 4.882812 -6.394531 4.9375 -5.875 C 5 -5.351562 5.320312 -5.09375 5.90625 -5.09375 C 6.5 -5.09375 6.945312 -5.347656 7.25 -5.859375 C 7.5625 -6.367188 7.816406 -7.101562 8.015625 -8.0625 L 12.921875 -29.203125 L 18.59375 -29.203125 L 13.671875 -7.8125 C 13.054688 -5.144531 12.003906 -3.128906 10.515625 -1.765625 C 9.035156 -0.410156 7.09375 0.265625 4.6875 0.265625 Z M 4.6875 0.265625 "/></g></g></g><g fill="#ffffff" fill-opacity="1"><g transform="translate(249.560995, 154.149403)"><g><path d="M 4.6875 0.265625 C 2.5625 0.265625 1.007812 -0.398438 0.03125 -1.734375 C -0.945312 -3.066406 -1.160156 -4.898438 -0.609375 -7.234375 L 2.484375 -20.703125 C 3.160156 -23.609375 4.242188 -25.796875 5.734375 -27.265625 C 7.234375 -28.742188 9.21875 -29.484375 11.6875 -29.484375 C 13.84375 -29.484375 15.441406 -28.890625 16.484375 -27.703125 C 17.523438 -26.523438 17.785156 -24.828125 17.265625 -22.609375 L 16.109375 -17.578125 L 10.296875 -17.578125 L 11.3125 -21.890625 C 11.5 -22.734375 11.53125 -23.3125 11.40625 -23.625 C 11.28125 -23.945312 10.96875 -24.109375 10.46875 -24.109375 C 9.945312 -24.109375 9.546875 -23.925781 9.265625 -23.5625 C 8.984375 -23.195312 8.757812 -22.664062 8.59375 -21.96875 L 5.203125 -7.3125 C 5.046875 -6.539062 5.035156 -5.976562 5.171875 -5.625 C 5.304688 -5.269531 5.597656 -5.09375 6.046875 -5.09375 C 6.953125 -5.09375 7.578125 -5.832031 7.921875 -7.3125 L 9.140625 -12.578125 L 15.03125 -12.578125 L 13.765625 -7.078125 C 12.628906 -2.179688 9.601562 0.265625 4.6875 0.265625 Z M 4.6875 0.265625 "/></g></g></g><g fill="#ffffff" fill-opacity="1"><g transform="translate(266.355141, 154.149403)"><g><path d="M -2.828125 0 L 6.734375 -29.203125 L 16.625 -29.203125 L 12.671875 0 L 7.140625 0 L 7.8125 -4.71875 L 4.28125 -4.71875 L 2.859375 0 Z M 5.8125 -9.390625 L 8.46875 -9.390625 L 10.578125 -24.234375 L 10.296875 -24.234375 Z M 5.8125 -9.390625 "/></g></g></g><g fill="#ffffff" fill-opacity="1"><g transform="translate(117.412093, 190.1494)"><g><path d="M -2.828125 0 L 6.734375 -29.203125 L 16.625 -29.203125 L 12.671875 0 L 7.140625 0 L 7.8125 -4.71875 L 4.28125 -4.71875 L 2.859375 0 Z M 5.8125 -9.390625 L 8.46875 -9.390625 L 10.578125 -24.234375 L 10.296875 -24.234375 Z M 5.8125 -9.390625 "/></g></g></g><g fill="#ffffff" fill-opacity="1"><g transform="translate(134.580203, 190.1494)"><g><path d="M 4.6875 -29.203125 L 13.671875 -29.203125 C 15.097656 -29.203125 16.128906 -28.878906 16.765625 -28.234375 C 17.398438 -27.585938 17.71875 -26.679688 17.71875 -25.515625 C 17.71875 -24.347656 17.507812 -22.859375 17.09375 -21.046875 C 16.707031 -19.390625 16.191406 -18.097656 15.546875 -17.171875 C 14.898438 -16.242188 14 -15.597656 12.84375 -15.234375 C 13.6875 -15.046875 14.226562 -14.601562 14.46875 -13.90625 C 14.707031 -13.207031 14.6875 -12.253906 14.40625 -11.046875 L 11.796875 0 L 6.078125 0 L 8.703125 -11.421875 C 8.898438 -12.234375 8.863281 -12.753906 8.59375 -12.984375 C 8.320312 -13.210938 7.769531 -13.328125 6.9375 -13.328125 L 3.875 0 L -2.046875 0 Z M 9.546875 -18.390625 C 10.367188 -18.390625 10.984375 -19.273438 11.390625 -21.046875 C 11.566406 -21.816406 11.660156 -22.394531 11.671875 -22.78125 C 11.679688 -23.164062 11.613281 -23.429688 11.46875 -23.578125 C 11.320312 -23.722656 11.078125 -23.796875 10.734375 -23.796875 L 9.375 -23.796875 L 8.15625 -18.390625 Z M 9.546875 -18.390625 "/></g></g></g><g fill="#ffffff" fill-opacity="1"><g transform="translate(151.476343, 190.1494)"><g><path d="M 3.90625 0.265625 C 1.800781 0.265625 0.40625 -0.472656 -0.28125 -1.953125 C -0.976562 -3.441406 -0.976562 -5.691406 -0.28125 -8.703125 L 2.609375 -21.28125 C 3.242188 -23.976562 4.320312 -26.019531 5.84375 -27.40625 C 7.363281 -28.789062 9.3125 -29.484375 11.6875 -29.484375 C 13.613281 -29.484375 15.019531 -29.097656 15.90625 -28.328125 C 16.789062 -27.554688 17.265625 -26.429688 17.328125 -24.953125 C 17.398438 -23.484375 17.175781 -21.59375 16.65625 -19.28125 L 10.9375 -19.28125 L 11.5625 -21.890625 C 11.71875 -22.597656 11.742188 -23.144531 11.640625 -23.53125 C 11.535156 -23.914062 11.234375 -24.109375 10.734375 -24.109375 C 9.628906 -24.109375 8.90625 -23.382812 8.5625 -21.9375 L 5.296875 -7.78125 C 5.097656 -6.894531 5.050781 -6.222656 5.15625 -5.765625 C 5.269531 -5.316406 5.613281 -5.09375 6.1875 -5.09375 C 6.75 -5.09375 7.203125 -5.316406 7.546875 -5.765625 C 7.890625 -6.222656 8.160156 -6.894531 8.359375 -7.78125 L 9.3125 -11.96875 L 7.75 -11.96875 L 8.90625 -17 L 16.046875 -17 L 12.140625 0 L 9.796875 0 L 9.34375 -2.453125 C 7.894531 -0.640625 6.082031 0.265625 3.90625 0.265625 Z M 3.90625 0.265625 "/></g></g></g><g fill="#ffffff" fill-opacity="1"><g transform="translate(168.644451, 190.1494)"><g><path d="M -2.046875 0 L 4.6875 -29.203125 L 16.390625 -29.203125 L 15.09375 -23.5625 L 9.34375 -23.5625 L 8.015625 -17.890625 L 13.53125 -17.890625 L 12.265625 -12.375 L 6.765625 -12.375 L 5.203125 -5.671875 L 11.3125 -5.671875 L 10.03125 0 Z M -2.046875 0 "/></g></g></g><g fill="#ffffff" fill-opacity="1"><g transform="translate(183.330853, 190.1494)"><g><path d="M -2.046875 0 L 4.6875 -29.203125 L 10.703125 -29.203125 L 10.15625 -15.234375 L 13.390625 -29.203125 L 19.03125 -29.203125 L 12.3125 0 L 6.59375 0 L 7.03125 -14.625 L 3.671875 0 Z M -2.046875 0 "/></g></g></g><g fill="#ffffff" fill-opacity="1"><g transform="translate(200.940912, 190.1494)"><g><path d="M 0.4375 0 L 5.875 -23.59375 L 2.40625 -23.59375 L 3.703125 -29.203125 L 16.484375 -29.203125 L 15.203125 -23.59375 L 11.734375 -23.59375 L 6.296875 0 Z M 0.4375 0 "/></g></g></g><g fill="#ffffff" fill-opacity="1"><g transform="translate(215.083371, 190.1494)"><g><path d="M -2.3125 0 L 4.421875 -29.203125 L 10.0625 -29.203125 L 3.328125 0 Z M -2.3125 0 "/></g></g></g><g fill="#ffffff" fill-opacity="1"><g transform="translate(223.480484, 190.1494)"><g><path d="M -2.046875 0 L 4.6875 -29.203125 L 10.703125 -29.203125 L 10.15625 -15.234375 L 13.390625 -29.203125 L 19.03125 -29.203125 L 12.3125 0 L 6.59375 0 L 7.03125 -14.625 L 3.671875 0 Z M -2.046875 0 "/></g></g></g><g fill="#ffffff" fill-opacity="1"><g transform="translate(241.090537, 190.1494)"><g><path d="M -2.828125 0 L 6.734375 -29.203125 L 16.625 -29.203125 L 12.671875 0 L 7.140625 0 L 7.8125 -4.71875 L 4.28125 -4.71875 L 2.859375 0 Z M 5.8125 -9.390625 L 8.46875 -9.390625 L 10.578125 -24.234375 L 10.296875 -24.234375 Z M 5.8125 -9.390625 "/></g></g></g><g fill="#ffffff" fill-opacity="1"><g transform="translate(104.248445, 236.828099)"><g><path d="M 3.414062 0.0351562 L 3.414062 -6.96875 L 5.875 -6.96875 L 5.875 -8.160156 L -0.234375 -8.160156 L -0.234375 -6.96875 L 2.238281 -6.96875 L 2.238281 0.0351562 Z M 3.414062 0.0351562 "/></g></g></g><g fill="#ffffff" fill-opacity="1"><g transform="translate(112.218005, 236.828099)"><g><path d="M 3.226562 0.0820312 C 4.628906 0.0820312 6.234375 -0.78125 6.234375 -2.4375 L 6.234375 -8.148438 L 5.046875 -8.148438 L 5.046875 -2.449219 C 5.046875 -1.550781 4.078125 -1.09375 3.226562 -1.09375 C 2.367188 -1.09375 1.398438 -1.539062 1.398438 -2.4375 L 1.398438 -8.148438 L 0.210938 -8.148438 L 0.210938 -2.449219 C 0.210938 -0.78125 1.792969 0.0820312 3.226562 0.0820312 Z M 3.226562 0.0820312 "/></g></g></g><g fill="#ffffff" fill-opacity="1"><g transform="translate(120.828229, 236.828099)"><g><path d="M 3.414062 0.0351562 L 3.414062 -6.96875 L 5.875 -6.96875 L 5.875 -8.160156 L -0.234375 -8.160156 L -0.234375 -6.96875 L 2.238281 -6.96875 L 2.238281 0.0351562 Z M 3.414062 0.0351562 "/></g></g></g><g fill="#ffffff" fill-opacity="1"><g transform="translate(128.797788, 236.828099)"><g><path d="M 7.097656 -4.078125 C 7.097656 -3.238281 6.761719 -2.503906 6.234375 -1.96875 C 5.6875 -1.421875 4.929688 -1.082031 4.125 -1.082031 C 3.320312 -1.082031 2.574219 -1.421875 2.039062 -1.96875 C 1.503906 -2.503906 1.164062 -3.25 1.164062 -4.078125 C 1.164062 -4.90625 1.503906 -5.652344 2.039062 -6.1875 C 2.574219 -6.738281 3.320312 -7.074219 4.125 -7.074219 C 4.929688 -7.074219 5.6875 -6.738281 6.234375 -6.1875 C 6.761719 -5.652344 7.097656 -4.917969 7.097656 -4.078125 Z M -0.0234375 -4.078125 C -0.0234375 -2.925781 0.453125 -1.886719 1.1875 -1.128906 C 1.933594 -0.359375 2.984375 0.105469 4.125 0.105469 C 5.28125 0.105469 6.316406 -0.359375 7.074219 -1.128906 C 7.808594 -1.886719 8.285156 -2.925781 8.285156 -4.078125 C 8.285156 -5.234375 7.808594 -6.269531 7.074219 -7.027344 C 6.316406 -7.785156 5.28125 -8.261719 4.125 -8.261719 C 2.984375 -8.261719 1.933594 -7.785156 1.1875 -7.027344 C 0.453125 -6.269531 -0.0234375 -5.234375 -0.0234375 -4.078125 Z M -0.0234375 -4.078125 "/></g></g></g><g fill="#ffffff" fill-opacity="1"><g transform="translate(139.376603, 236.828099)"><g><path d="M 1.792969 -3.578125 L 4.765625 0 L 6.292969 0 L 3.71875 -3.066406 C 5.117188 -3.308594 5.828125 -4.40625 5.828125 -5.558594 C 5.828125 -6.851562 4.941406 -8.160156 3.171875 -8.160156 L 0.199219 -8.160156 L 0.199219 0 L 1.363281 0 L 1.363281 -6.96875 L 3.171875 -6.96875 C 4.160156 -6.96875 4.648438 -6.257812 4.648438 -5.558594 C 4.648438 -4.847656 4.160156 -4.136719 3.171875 -4.136719 L 1.792969 -4.136719 Z M 1.792969 -3.578125 "/></g></g></g><g fill="#ffffff" fill-opacity="1"><g transform="translate(147.264626, 236.828099)"><g><path d="M 4.019531 -8.148438 L -0.1875 -8.148438 L -0.1875 -6.980469 L 1.328125 -6.980469 L 1.328125 -1.175781 L -0.1875 -1.175781 L -0.1875 0 L 4.019531 0 L 4.019531 -1.175781 L 2.503906 -1.175781 L 2.503906 -6.980469 L 4.019531 -6.980469 Z M 2.414062 -8.519531 L 3.730469 -9.765625 L 2.144531 -9.765625 L 1.304688 -8.519531 Z M 2.414062 -8.519531 "/></g></g></g><g fill="#ffffff" fill-opacity="1"><g transform="translate(153.370426, 236.828099)"><g><path d="M 3.214844 -6.386719 L 4.21875 -3.507812 L 2.191406 -3.507812 Z M 5.652344 0 L 6.910156 0 L 3.636719 -8.261719 L 2.773438 -8.261719 L -0.5 0 L 0.769531 0 C 1.027344 -0.675781 1.433594 -1.65625 1.75 -2.402344 L 4.671875 -2.402344 Z M 5.652344 0 "/></g></g></g><g fill="#ffffff" fill-opacity="1"><g transform="translate(161.969001, 236.828099)"><g><path d="M 5.804688 -6.09375 C 5.59375 -7.585938 4.289062 -8.238281 3.03125 -8.238281 C 2.085938 -8.238281 1.105469 -7.867188 0.558594 -7.15625 C 0.210938 -6.703125 0.0703125 -6.152344 0.117188 -5.605469 L 0.117188 -5.617188 C 0.246094 -3.917969 1.738281 -3.636719 3.007812 -3.507812 C 3.824219 -3.425781 4.660156 -3.320312 4.800781 -2.703125 C 4.824219 -2.597656 4.835938 -2.503906 4.835938 -2.425781 C 4.835938 -1.585938 3.882812 -1.09375 3.007812 -1.09375 C 2.25 -1.09375 1.328125 -1.492188 1.246094 -2.25 L 1.246094 -2.203125 L 1.234375 -2.378906 L 0.046875 -2.355469 L 0.0585938 -2.132812 C 0.210938 -0.675781 1.738281 0.0703125 2.996094 0.0703125 C 4.464844 0.0703125 6.027344 -0.839844 6.027344 -2.414062 C 6.027344 -2.574219 6.003906 -2.773438 5.96875 -2.949219 C 5.652344 -4.253906 4.265625 -4.546875 3.148438 -4.683594 C 2.273438 -4.765625 1.351562 -4.871094 1.292969 -5.710938 C 1.269531 -5.992188 1.328125 -6.257812 1.492188 -6.46875 C 1.816406 -6.886719 2.425781 -7.074219 2.972656 -7.085938 C 3.683594 -7.097656 4.476562 -6.785156 4.640625 -6.050781 Z M 5.804688 -6.09375 "/></g></g></g><g fill="#ffffff" fill-opacity="1"><g transform="translate(170.17153, 236.828099)"><g/></g></g><g fill="#ffffff" fill-opacity="1"><g transform="translate(176.021075, 236.828099)"><g><path d="M 0.164062 -8.160156 L 0.164062 0 L 1.351562 0 L 1.351562 -2.714844 L 3.148438 -2.714844 C 4.90625 -2.714844 5.792969 -4.066406 5.792969 -5.429688 C 5.792969 -6.792969 4.90625 -8.160156 3.148438 -8.160156 Z M 1.351562 -3.882812 L 1.351562 -6.96875 L 3.148438 -6.96875 C 4.136719 -6.96875 4.628906 -6.199219 4.628906 -5.417969 C 4.628906 -4.648438 4.136719 -3.882812 3.148438 -3.882812 Z M 1.351562 -3.882812 "/></g></g></g><g fill="#ffffff" fill-opacity="1"><g transform="translate(183.909097, 236.828099)"><g><path d="M 1.328125 -3.484375 L 5.023438 -3.484375 L 5.023438 -4.671875 L 1.328125 -4.671875 L 1.328125 -6.96875 L 5.105469 -6.96875 L 5.105469 -8.148438 L 0.140625 -8.148438 L 0.140625 0 L 5.117188 0 L 5.117188 -1.175781 L 1.328125 -1.175781 Z M 1.328125 -3.484375 "/></g></g></g><g fill="#ffffff" fill-opacity="1"><g transform="translate(191.109857, 236.828099)"><g><path d="M 1.375 -1.175781 L 1.375 -6.96875 L 3.125 -6.96875 C 5.011719 -6.96875 5.96875 -5.511719 5.96875 -4.066406 C 5.96875 -2.621094 5.011719 -1.175781 3.125 -1.175781 Z M 0.199219 -8.148438 L 0.199219 0 L 3.125 0 C 5.792969 0 7.132812 -2.027344 7.132812 -4.066406 C 7.132812 -6.105469 5.792969 -8.148438 3.125 -8.148438 Z M 0.199219 -8.148438 "/></g></g></g><g fill="#ffffff" fill-opacity="1"><g transform="translate(200.442279, 236.828099)"><g><path d="M 3.214844 -6.386719 L 4.21875 -3.507812 L 2.191406 -3.507812 Z M 5.652344 0 L 6.910156 0 L 3.636719 -8.261719 L 2.773438 -8.261719 L -0.5 0 L 0.769531 0 C 1.027344 -0.675781 1.433594 -1.65625 1.75 -2.402344 L 4.671875 -2.402344 Z M 5.652344 0 "/></g></g></g><g fill="#ffffff" fill-opacity="1"><g transform="translate(209.040854, 236.828099)"><g><path d="M 7.925781 -5.234375 C 7.496094 -7.402344 5.605469 -8.207031 4.042969 -8.207031 C 1.792969 -8.207031 0.0351562 -6.480469 0.0351562 -4.066406 C 0.0351562 -1.667969 1.761719 0.0585938 4.042969 0.0585938 C 5.523438 0.0585938 7.203125 -0.945312 7.761719 -2.503906 L 7.761719 -2.496094 C 7.867188 -2.761719 7.925781 -3.214844 7.984375 -3.90625 L 3.589844 -3.90625 L 3.589844 -2.726562 L 6.609375 -2.726562 C 6.117188 -1.539062 5.046875 -1.070312 4.042969 -1.070312 C 2.449219 -1.070312 1.210938 -2.34375 1.210938 -4.066406 C 1.210938 -5.78125 2.449219 -7.027344 4.042969 -7.027344 C 5.082031 -7.027344 6.339844 -6.550781 6.667969 -5.234375 Z M 7.925781 -5.234375 "/></g></g></g><g fill="#ffffff" fill-opacity="1"><g transform="translate(219.235273, 236.828099)"><g><path d="M 7.097656 -4.078125 C 7.097656 -3.238281 6.761719 -2.503906 6.234375 -1.96875 C 5.6875 -1.421875 4.929688 -1.082031 4.125 -1.082031 C 3.320312 -1.082031 2.574219 -1.421875 2.039062 -1.96875 C 1.503906 -2.503906 1.164062 -3.25 1.164062 -4.078125 C 1.164062 -4.90625 1.503906 -5.652344 2.039062 -6.1875 C 2.574219 -6.738281 3.320312 -7.074219 4.125 -7.074219 C 4.929688 -7.074219 5.6875 -6.738281 6.234375 -6.1875 C 6.761719 -5.652344 7.097656 -4.917969 7.097656 -4.078125 Z M -0.0234375 -4.078125 C -0.0234375 -2.925781 0.453125 -1.886719 1.1875 -1.128906 C 1.933594 -0.359375 2.984375 0.105469 4.125 0.105469 C 5.28125 0.105469 6.316406 -0.359375 7.074219 -1.128906 C 7.808594 -1.886719 8.285156 -2.925781 8.285156 -4.078125 C 8.285156 -5.234375 7.808594 -6.269531 7.074219 -7.027344 C 6.316406 -7.785156 5.28125 -8.261719 4.125 -8.261719 C 2.984375 -8.261719 1.933594 -7.785156 1.1875 -7.027344 C 0.453125 -6.269531 -0.0234375 -5.234375 -0.0234375 -4.078125 Z M 4.558594 -8.554688 L 5.875 -9.800781 L 4.289062 -9.800781 L 3.449219 -8.554688 Z M 4.558594 -8.554688 "/></g></g></g><g fill="#ffffff" fill-opacity="1"><g transform="translate(229.814088, 236.828099)"><g><path d="M 7.925781 -5.234375 C 7.496094 -7.402344 5.605469 -8.207031 4.042969 -8.207031 C 1.792969 -8.207031 0.0351562 -6.480469 0.0351562 -4.066406 C 0.0351562 -1.667969 1.761719 0.0585938 4.042969 0.0585938 C 5.523438 0.0585938 7.203125 -0.945312 7.761719 -2.503906 L 7.761719 -2.496094 C 7.867188 -2.761719 7.925781 -3.214844 7.984375 -3.90625 L 3.589844 -3.90625 L 3.589844 -2.726562 L 6.609375 -2.726562 C 6.117188 -1.539062 5.046875 -1.070312 4.042969 -1.070312 C 2.449219 -1.070312 1.210938 -2.34375 1.210938 -4.066406 C 1.210938 -5.78125 2.449219 -7.027344 4.042969 -7.027344 C 5.082031 -7.027344 6.339844 -6.550781 6.667969 -5.234375 Z M 7.925781 -5.234375 "/></g></g></g><g fill="#ffffff" fill-opacity="1"><g transform="translate(240.008507, 236.828099)"><g><path d="M 4.136719 -8.148438 L -0.0703125 -8.148438 L -0.0703125 -6.980469 L 1.445312 -6.980469 L 1.445312 -1.175781 L -0.0703125 -1.175781 L -0.0703125 0 L 4.136719 0 L 4.136719 -1.175781 L 2.621094 -1.175781 L 2.621094 -6.980469 L 4.136719 -6.980469 Z M 4.136719 -8.148438 "/></g></g></g><g fill="#ffffff" fill-opacity="1"><g transform="translate(246.289035, 236.828099)"><g><path d="M 0.0351562 -4.054688 C 0.0351562 -2.925781 0.5 -1.898438 1.199219 -1.152344 C 1.910156 -0.40625 2.914062 0.0585938 4.019531 0.0585938 C 5.921875 0.0585938 7.414062 -1.199219 7.878906 -3.054688 L 6.726562 -3.054688 C 6.304688 -1.816406 5.257812 -1.105469 4.019531 -1.105469 C 3.238281 -1.105469 2.527344 -1.445312 2.015625 -1.980469 C 1.503906 -2.515625 1.175781 -3.238281 1.175781 -4.054688 C 1.175781 -4.894531 1.503906 -5.617188 2.015625 -6.152344 C 2.527344 -6.691406 3.238281 -7.027344 4.019531 -7.027344 C 5.222656 -7.027344 6.222656 -6.410156 6.65625 -5.1875 L 7.820312 -5.1875 C 7.355469 -7.027344 5.886719 -8.195312 4.019531 -8.195312 C 2.914062 -8.195312 1.910156 -7.714844 1.199219 -6.980469 C 0.5 -6.234375 0.0351562 -5.210938 0.0351562 -4.054688 Z M 0.0351562 -4.054688 "/></g></g></g><g fill="#ffffff" fill-opacity="1"><g transform="translate(256.308726, 236.828099)"><g><path d="M 3.214844 -6.386719 L 4.21875 -3.507812 L 2.191406 -3.507812 Z M 5.652344 0 L 6.910156 0 L 3.636719 -8.261719 L 2.773438 -8.261719 L -0.5 0 L 0.769531 0 C 1.027344 -0.675781 1.433594 -1.65625 1.75 -2.402344 L 4.671875 -2.402344 Z M 5.652344 0 "/></g></g></g><g fill="#ffffff" fill-opacity="1"><g transform="translate(264.907301, 236.828099)"><g><path d="M 5.804688 -6.09375 C 5.59375 -7.585938 4.289062 -8.238281 3.03125 -8.238281 C 2.085938 -8.238281 1.105469 -7.867188 0.558594 -7.15625 C 0.210938 -6.703125 0.0703125 -6.152344 0.117188 -5.605469 L 0.117188 -5.617188 C 0.246094 -3.917969 1.738281 -3.636719 3.007812 -3.507812 C 3.824219 -3.425781 4.660156 -3.320312 4.800781 -2.703125 C 4.824219 -2.597656 4.835938 -2.503906 4.835938 -2.425781 C 4.835938 -1.585938 3.882812 -1.09375 3.007812 -1.09375 C 2.25 -1.09375 1.328125 -1.492188 1.246094 -2.25 L 1.246094 -2.203125 L 1.234375 -2.378906 L 0.046875 -2.355469 L 0.0585938 -2.132812 C 0.210938 -0.675781 1.738281 0.0703125 2.996094 0.0703125 C 4.464844 0.0703125 6.027344 -0.839844 6.027344 -2.414062 C 6.027344 -2.574219 6.003906 -2.773438 5.96875 -2.949219 C 5.652344 -4.253906 4.265625 -4.546875 3.148438 -4.683594 C 2.273438 -4.765625 1.351562 -4.871094 1.292969 -5.710938 C 1.269531 -5.992188 1.328125 -6.257812 1.492188 -6.46875 C 1.816406 -6.886719 2.425781 -7.074219 2.972656 -7.085938 C 3.683594 -7.097656 4.476562 -6.785156 4.640625 -6.050781 Z M 5.804688 -6.09375 "/></g></g></g><g fill="#ffffff" fill-opacity="1"><g transform="translate(164.435941, 248.828098)"><g><path d="M 7.097656 -4.078125 C 7.097656 -3.238281 6.761719 -2.503906 6.234375 -1.96875 C 5.6875 -1.421875 4.929688 -1.082031 4.125 -1.082031 C 3.320312 -1.082031 2.574219 -1.421875 2.039062 -1.96875 C 1.503906 -2.503906 1.164062 -3.25 1.164062 -4.078125 C 1.164062 -4.90625 1.503906 -5.652344 2.039062 -6.1875 C 2.574219 -6.738281 3.320312 -7.074219 4.125 -7.074219 C 4.929688 -7.074219 5.6875 -6.738281 6.234375 -6.1875 C 6.761719 -5.652344 7.097656 -4.917969 7.097656 -4.078125 Z M -0.0234375 -4.078125 C -0.0234375 -2.925781 0.453125 -1.886719 1.1875 -1.128906 C 1.933594 -0.359375 2.984375 0.105469 4.125 0.105469 C 5.28125 0.105469 6.316406 -0.359375 7.074219 -1.128906 C 7.808594 -1.886719 8.285156 -2.925781 8.285156 -4.078125 C 8.285156 -5.234375 7.808594 -6.269531 7.074219 -7.027344 C 6.316406 -7.785156 5.28125 -8.261719 4.125 -8.261719 C 2.984375 -8.261719 1.933594 -7.785156 1.1875 -7.027344 C 0.453125 -6.269531 -0.0234375 -5.234375 -0.0234375 -4.078125 Z M -0.0234375 -4.078125 "/></g></g></g><g fill="#ffffff" fill-opacity="1"><g transform="translate(175.014754, 248.828098)"><g><path d="M 1.363281 0 L 1.363281 -5.699219 L 5.304688 0 L 6.234375 0 L 6.234375 -8.160156 L 5.070312 -8.160156 L 5.070312 -2.414062 L 1.09375 -8.160156 L 0.1875 -8.171875 L 0.1875 0 Z M 1.363281 0 "/></g></g></g><g fill="#ffffff" fill-opacity="1"><g transform="translate(183.613328, 248.828098)"><g><path d="M 1.328125 -8.148438 L 0.152344 -8.148438 L 0.152344 0 L 5.164062 0 L 5.164062 -1.175781 L 1.328125 -1.175781 Z M 1.328125 -8.148438 "/></g></g></g><g fill="#ffffff" fill-opacity="1"><g transform="translate(190.837384, 248.828098)"><g><path d="M 4.136719 -8.148438 L -0.0703125 -8.148438 L -0.0703125 -6.980469 L 1.445312 -6.980469 L 1.445312 -1.175781 L -0.0703125 -1.175781 L -0.0703125 0 L 4.136719 0 L 4.136719 -1.175781 L 2.621094 -1.175781 L 2.621094 -6.980469 L 4.136719 -6.980469 Z M 4.136719 -8.148438 "/></g></g></g><g fill="#ffffff" fill-opacity="1"><g transform="translate(197.117913, 248.828098)"><g><path d="M 1.363281 0 L 1.363281 -5.699219 L 5.304688 0 L 6.234375 0 L 6.234375 -8.160156 L 5.070312 -8.160156 L 5.070312 -2.414062 L 1.09375 -8.160156 L 0.1875 -8.171875 L 0.1875 0 Z M 1.363281 0 "/></g></g></g><g fill="#ffffff" fill-opacity="1"><g transform="translate(205.716488, 248.828098)"><g><path d="M 1.328125 -3.484375 L 5.023438 -3.484375 L 5.023438 -4.671875 L 1.328125 -4.671875 L 1.328125 -6.96875 L 5.105469 -6.96875 L 5.105469 -8.148438 L 0.140625 -8.148438 L 0.140625 0 L 5.117188 0 L 5.117188 -1.175781 L 1.328125 -1.175781 Z M 1.328125 -3.484375 "/></g></g></g><path fill="#ffffff" d="M 125.910156 206.410156 L 126.351562 206.570312 C 126.34375 206.496094 126.234375 206.433594 125.910156 206.410156 Z M 125.910156 206.410156 " fill-opacity="1" fill-rule="nonzero"/><path fill="#ffffff" d="M 238.242188 206.351562 C 238.277344 206.339844 238.316406 206.332031 238.347656 206.316406 C 238.273438 206.328125 238.25 206.339844 238.242188 206.351562 Z M 238.242188 206.351562 " fill-opacity="1" fill-rule="nonzero"/><g clip-path="url(#id3)"><path fill="#ffffff" d="M 143.160156 211.765625 C 143.148438 211.765625 143.140625 211.765625 143.136719 211.765625 C 143.097656 211.78125 143.054688 211.789062 143.019531 211.804688 Z M 143.160156 211.765625 " fill-opacity="1" fill-rule="nonzero"/></g><g clip-path="url(#id4)"><path fill="#ffffff" d="M 120.519531 211.332031 C 126.460938 211.527344 128.035156 212.269531 134.191406 211.96875 C 137.128906 212.027344 140.265625 211.855469 143.136719 211.765625 C 144.496094 211.1875 146.90625 211.757812 148.515625 211.273438 L 149.140625 211.601562 C 149.699219 211.4375 150.347656 211.324219 150.90625 211.5 L 150.871094 211.597656 C 151.703125 211.347656 152.636719 211.496094 153.050781 211.371094 L 153.015625 211.46875 L 154.023438 211.425781 L 153.851562 211.5625 C 155.300781 211.296875 156.789062 211.28125 158.105469 211.402344 L 157.996094 211.003906 C 160.804688 211.449219 161.835938 210.625 164.371094 211.152344 L 164.335938 211.246094 C 167.542969 210.203125 169.40625 211.960938 172.710938 210.96875 C 172.296875 211.089844 172.886719 211.171875 172.851562 211.269531 C 174.375 211.152344 176 211.09375 176.023438 210.316406 C 177.132812 210.328125 176.925781 210.558594 177.070312 210.859375 C 177.066406 210.519531 178.027344 210.378906 178.894531 210.355469 L 178.496094 210.488281 L 180.976562 210.371094 L 180.488281 209.726562 C 181.804688 209.914062 180.824219 210.515625 182.085938 210.359375 L 182.070312 209.824219 C 183.886719 209.929688 184.957031 210.738281 186.71875 211.132812 C 194.039062 211.359375 201.90625 210 208.722656 210.9375 L 209.019531 211.339844 C 209.152344 211.925781 210.902344 210.472656 211.160156 211.015625 L 211.953125 210.746094 C 212.175781 210.851562 212.644531 210.964844 212.25 211.097656 C 212.984375 211.117188 213 211.023438 213.527344 210.84375 L 214.316406 211.210938 C 217.207031 211.492188 219.664062 210.789062 222.707031 210.933594 C 226.363281 211.675781 233.242188 210.992188 237.203125 210.59375 C 242.777344 209.71875 249.257812 212.050781 254.960938 211.050781 C 255.144531 211.132812 255.628906 210.945312 255.621094 210.878906 L 260.84375 210.964844 C 260.84375 210.964844 286.15625 211.1875 266.925781 206.332031 L 267.054688 206.207031 C 264.195312 205.894531 262.398438 205.828125 260.429688 206.46875 C 260.117188 205.683594 258.082031 206.386719 257.410156 206.132812 L 257.476562 206.070312 C 255.730469 206.675781 253.886719 205.566406 252.203125 206.109375 C 252.269531 206.042969 252.304688 205.828125 252.691406 205.816406 C 251.46875 205.914062 249.792969 206.089844 249.703125 205.632812 C 246.777344 205.753906 242.699219 205.539062 240.824219 206.273438 L 240.953125 206.144531 C 239.886719 206.636719 239.570312 206.21875 238.378906 206.46875 C 238.3125 206.410156 238.226562 206.378906 238.242188 206.351562 C 237.078125 206.839844 234.847656 206.429688 233.90625 206.636719 L 233.847656 206.332031 L 231.53125 206.402344 L 232.394531 206.46875 C 232.097656 207.304688 230.644531 205.945312 228.964844 206.484375 C 227.394531 206.378906 225.777344 208.226562 224.144531 207.816406 C 223.367188 208.207031 224.828125 207.179688 223.667969 207.480469 C 223.628906 207.042969 224.210938 207.207031 223.910156 206.859375 C 222.769531 207.066406 222.035156 206.414062 220.628906 206.707031 L 220.570312 206.367188 C 218.730469 206.988281 217.101562 205.921875 215.878906 206.511719 C 213.980469 206.792969 214.605469 205.503906 212.632812 206.167969 L 211.863281 205.710938 C 211.019531 205.636719 211.257812 206.273438 210.324219 206.050781 C 210.378906 205.761719 209.140625 205.820312 209.6875 205.542969 C 207.566406 205.089844 205.382812 206.1875 202.589844 205.421875 C 201.984375 205.984375 200.578125 205.648438 200.125 206.074219 C 200.050781 205.828125 197.308594 206.035156 198.890625 205.5 C 199.023438 205.457031 199.265625 205.464844 199.246094 205.5625 L 199.4375 205.226562 C 197.84375 204.59375 196.542969 205.574219 194.964844 205.476562 C 195.433594 205.585938 196.054688 205.558594 195.640625 205.789062 L 194.175781 205.742188 L 194.480469 205.460938 L 192.300781 205.296875 L 192.601562 205.644531 C 191.53125 205.464844 191.15625 204.875 189.953125 205.367188 C 189.410156 205.644531 190.964844 205.835938 189.835938 205.945312 C 188.410156 205.707031 186.273438 205.351562 184.453125 205.246094 C 184.621094 205.640625 184.132812 205.625 183.628906 205.703125 L 183.570312 205.363281 C 181.636719 205.835938 182.859375 204.617188 180.941406 204.992188 L 181.113281 204.753906 L 180.605469 205.464844 C 178.875 206.140625 179.671875 204.757812 177.75 205.679688 C 178.507812 205.621094 178.105469 206.429688 177.171875 206.28125 L 177.40625 205.953125 C 176.890625 206.023438 176.714844 206.160156 176.371094 206.09375 C 176.679688 205.914062 176.535156 205.613281 175.773438 205.671875 L 176.285156 205.261719 L 174.84375 205.863281 C 173.730469 205.511719 171.96875 205.953125 171.515625 205.492188 C 171.515625 205.492188 169.125 205.265625 168.574219 205.769531 C 169.054688 205.457031 167.738281 205.335938 168.113281 204.964844 C 167.492188 205.324219 165.664062 205.613281 164.933594 205.234375 L 165.070312 205.191406 C 162.363281 204.804688 160.4375 205.722656 158.007812 205.253906 C 158.117188 205.648438 156.835938 205.433594 157.152344 205.9375 C 154.636719 206.4375 152.566406 204.910156 151.660156 206.46875 C 150.515625 206.554688 150.300781 206.105469 149.710938 206.023438 L 149.984375 205.941406 C 147.839844 206.070312 147.21875 206.085938 145.625 206.046875 C 144.832031 206.199219 144.707031 206.925781 143.28125 206.75 C 143.742188 206.460938 143.160156 206.515625 142.628906 206.515625 C 142.96875 206.46875 143.074219 206.363281 142.375 206.171875 C 142.277344 206.261719 142.125 206.316406 141.980469 206.359375 C 141.976562 206.339844 141.949219 206.320312 141.960938 206.289062 C 141.074219 206.390625 141.226562 206.480469 141.640625 206.519531 C 141.621094 206.566406 141.65625 206.621094 141.78125 206.699219 C 140.859375 206.328125 139.210938 206.726562 139.097656 206.230469 C 136.425781 206.347656 134.511719 206.855469 132.289062 207.050781 C 132.039062 206.792969 132.558594 206.570312 133.203125 206.46875 L 131.625 206.5625 C 131.640625 206.195312 132.53125 206.351562 133.019531 206.277344 C 131.140625 205.6875 129.144531 206.871094 126.941406 206.328125 L 126.484375 206.617188 L 126.351562 206.570312 C 126.359375 206.722656 125.867188 206.929688 125.539062 206.980469 C 125.226562 206.660156 125.558594 206.242188 124.46875 206.261719 C 123.605469 205.957031 122.019531 206.417969 120.886719 206.589844 C 121.496094 206.644531 121.300781 206.820312 121.039062 206.933594 C 120.492188 206.941406 120.179688 206.625 119.757812 206.761719 L 119.707031 206.332031 C 119.921875 206.738281 118.28125 206.769531 118.078125 206.945312 C 117.769531 206.625 118.925781 206.667969 119.0625 206.429688 C 116.875 206.46875 117.96875 206.449219 115.78125 206.488281 C 114.613281 206.8125 115.992188 206.898438 115.433594 207.273438 C 114.40625 207.359375 113.398438 207.660156 112.214844 207.398438 L 112.589844 207.78125 C 110.65625 208.078125 109.496094 208.035156 108.191406 207.648438 C 93.769531 210.761719 105.152344 211.898438 105.152344 211.898438 C 110.832031 212.746094 113.761719 211.632812 120.519531 211.332031 Z M 120.519531 211.332031 " fill-opacity="1" fill-rule="nonzero"/></g></svg>