<?xml version="1.0" encoding="utf-8"?>
<!-- Generator: Adobe Illustrator 16.0.3, SVG Export Plug-In . SVG Version: 6.00 Build 0)  -->
<!DOCTYPE svg PUBLIC "-//W3C//DTD SVG 1.1//EN" "http://www.w3.org/Graphics/SVG/1.1/DTD/svg11.dtd">
<svg version="1.1" id="Capa_1" xmlns="http://www.w3.org/2000/svg" xmlns:xlink="http://www.w3.org/1999/xlink" x="0px" y="0px"
	 width="4171.161px" height="3885.408px" viewBox="0 0 4171.161 3885.408" enable-background="new 0 0 4171.161 3885.408"
	 xml:space="preserve">
<g>
	<path fill-rule="evenodd" clip-rule="evenodd" fill="#2E2E30" d="M4.17,1785.772c10.416-19.329,7.175-41.239,11.479-61.765
		c6.968-33.231,12.143-66.84,17.956-100.312c1.913-11.019,5.416-21.634,18.962-19.768c15.214,2.094,14.067,14.224,12.825,25.895
		c-9.051,84.93-19.069,169.82-11.281,255.512c10.687,117.558,53.557,217.397,155.626,285.158
		c11.505,7.638,21.748,17.21,32.371,26.131c4.874,4.094,9.357,8.941,6.424,16.098c-3.157,7.707-9.872,8.688-17.253,8.424
		c-30.09-1.067-57.203-11.112-81.028-28.921c-69.433-51.896-105.344-125.042-129.349-205.724
		c-6.998-23.52-6.167-48.795-16.731-71.423c0-6.953,0-13.902,0-20.855c3.558-26.416,3.558-52.836,0-79.252
		C4.17,1805.239,4.17,1795.504,4.17,1785.772z"/>
	<path fill-rule="evenodd" clip-rule="evenodd" fill="#8E8E8F" d="M4.17,1814.97c6.519,26.416,6.961,52.836,0,79.252
		C4.17,1867.807,4.17,1841.386,4.17,1814.97z"/>
	<path fill-rule="evenodd" clip-rule="evenodd" fill="#5170FE" d="M2084.064,3697.578
		c-959.832,1.727-1742.436-782.403-1747.603-1744.23c-5.163-961.086,779.616-1762.951,1762.662-1759.187
		c929.272,3.56,1742.729,756.438,1741.053,1757.289C3838.569,2911.322,3060.87,3699.68,2084.064,3697.578z"/>
	<path fill-rule="evenodd" clip-rule="evenodd" fill="#85A9DE" d="M744.372,3226.729c38.604,37.198,76.057,73.211,113.385,109.351
		c4.753,4.603,4.859,11.107,6.096,17.291c11.848,59.162,31.481,115.123,70.067,162.712c39.742,49.02,91.751,75.272,154.369,79.766
		c37.545,2.692,74.874-0.676,111.53-9.675c6.147-1.507,11.939-3.596,18.1-0.228c46.795,25.589,95.809,46.701,146.616,70.832
		c-56.111,23.442-111.328,39.264-167.877,49.892c-78.136,14.68-156.386,19.165-235.302,2.684
		c-120.057-25.075-190.405-99.228-217.862-216.387c-16.976-72.434-16.279-145.787-6.802-219.21
		C738.639,3258.677,738.329,3243.239,744.372,3226.729z"/>
	<path fill-rule="evenodd" clip-rule="evenodd" fill="#85A9DE" d="M1314.422,255.001c-52.402,28.318-104.627,56.975-157.343,84.698
		c-12.043,6.334-25.862,1.907-38.932,0.88c-80.796-6.342-155.594,6.497-212.52,70.784c-36.054,40.714-52.885,90.698-62.614,143.131
		c-2.42,13.043-7.184,22.979-16.573,32.266c-29.508,29.186-58.227,59.174-91.208,92.898c-3.179-41.646,2.471-76.242,7.587-110.605
		c10.911-73.301,31.041-143.905,71.79-206.733c59.863-92.303,146.809-143.668,254.043-160.903
		c87.974-14.135,174.095-2.134,258.474,24.754C1331.325,239.498,1320.658,246.271,1314.422,255.001z"/>
	<path fill-rule="evenodd" clip-rule="evenodd" fill="#86A9DE" d="M3939.179,2083.917c32.198,54.607,54.082,107.109,65.144,163.97
		c27.632,142.064-20.559,261.989-108.381,370.211c-35.958,44.311-76.792,83.549-124.703,116.573
		C3864.649,2529.302,3921.121,2314.842,3939.179,2083.917z"/>
	<path fill-rule="evenodd" clip-rule="evenodd" fill="#2E2E30" d="M603.268,3301.497c-3.654,95.761-10.577,191.772,14.342,286.046
		c25.946,98.156,75.682,178.436,171.319,223.304c44.212,20.742,91.232,27.988,139.546,28.999c4.864,0.102,9.729,0.199,14.593,0.224
		c6.787,0.032,12.891,2.086,14.731,9.051c1.872,7.088-2.682,11.41-8.711,14.681c-19.711,10.693-40.371,18.225-62.842,20.44
		c-67.472,6.66-125.569-15.561-177.417-57.272c-86.674-69.728-134.373-161.896-149.212-270.335
		c-20.53-150.031-8.996-299.427,17.338-447.936c1.505-8.493,2.446-19.344,15.786-17.43c12.102,1.735,11.709,11.389,12.603,20.607
		C611.476,3175.156,604.567,3238.286,603.268,3301.497z"/>
	<path fill-rule="evenodd" clip-rule="evenodd" fill="#2E2E30" d="M3703.671,851.069c5.315-76.193-0.589-151.172-23.058-224.566
		c-35.658-116.479-111.705-199.446-215.059-259.626c-54.231-31.581-112.333-53.98-172.951-69.969
		c-5.36-1.417-10.696-2.929-16.063-4.322c-7.798-2.024-12.319-6.729-10.754-15.031c1.624-8.607,8.735-7.438,14.909-7.031
		c32.697,2.143,64.834,8.012,95.914,18.078c151.667,49.133,268.845,140.402,328.32,290.759
		c49.123,124.182,59.348,254.693,32.938,386.811c-0.945,4.733-2.889,9.259-4.058,13.959c-1.938,7.797-7.047,12.192-14.766,12.147
		c-9.114-0.057-10.157-7.308-11.595-14.477c-5.23-26.054-6.065-52.413-5.78-78.82
		C3701.844,883.005,3702.973,867.037,3703.671,851.069z"/>
	<path fill-rule="evenodd" clip-rule="evenodd" fill="#86A9DE" d="M3145.501,408.666c223.271,19.21,379.622,172.134,407.409,394.48
		c-32.453-37.663-61.989-76.311-96.081-110.401c-43.653-43.659-77.175-97.468-127.476-133.856
		c-65.237-47.187-125.189-101.285-192.67-145.408C3136.23,405.664,3140.89,407.211,3145.501,408.666z"/>
	<path fill-rule="evenodd" clip-rule="evenodd" fill="#2E2E30" d="M4173.615,2395.271c-1.204,117.094-30.895,226.119-93.891,325.363
		c-21.82,34.38-49.135,63.781-84.014,85.477c-8.073,5.022-16.902,12.627-26.043,3.01c-8.501-8.941-0.678-16.688,4.346-23.898
		c23.791-34.159,49.183-67.292,71.373-102.454c68.354-108.304,94.885-226.493,81.089-353.991
		c-4.345-40.123-11.139-79.684-20.444-118.878c-2.559-10.774-4.473-21.882,9.12-25.731c13.358-3.784,15.351,8.525,19.345,16.896
		C4163.787,2262.499,4174.008,2327.815,4173.615,2395.271z"/>
	<path fill-rule="evenodd" clip-rule="evenodd" fill="#2E2E30" d="M2714.517,3815.132c-69.215,0.139-136.842-10.008-202.912-30.782
		c-9.724-3.056-17.287-7.108-14.44-18.555c2.852-11.454,11.243-11.687,21.377-9.418c178.454,39.973,347.136,12.514,507.296-73.777
		c16.456-8.863,33.487-16.672,50.316-24.84c7.766-3.768,16.067-11.352,23.817-0.977c8.782,11.756-2.652,17.527-9.009,23.857
		c-47.622,47.431-104.855,79.517-167.689,101.518c-26.729,9.356-54.585,16.105-82.413,21.58
		C2799.256,3811.922,2757.009,3815.482,2714.517,3815.132z"/>
	<path fill-rule="evenodd" clip-rule="evenodd" fill="#2E2E30" d="M1645.307,143.06c-7.088,0.945-10.159-8.2-14.939-14.452
		c-19.373-25.337-37.605-51.427-67.928-65.826c-45.686-21.695-92.872-25.87-141.895-15.43c-10.159,2.163-20.471,3.625-30.744,5.21
		c-6.729,1.039-14.534,3.841-18.577-4.293c-4.554-9.161,3.507-14.175,8.805-18.872c21.695-19.247,48.255-26.844,76.389-28.742
		c99.57-6.721,172.973,38.848,230.507,116.068c8.746,11.739,8.847,17.434-7.622,18.766c-8.851,0.717-17.477,4.195-26.214,6.383
		C1651.749,142.204,1650.347,142.302,1645.307,143.06z"/>
	<path fill-rule="evenodd" clip-rule="evenodd" fill="#F5B637" d="M1314.422,255.001c0.53-11.243,9.886-18.6,12.705-28.832
		c30.219-41.117,66.181-74.486,117.762-86.389c44.602-10.298,86.326-3.141,127.202,21.674
		c-46.765,16.131-90.818,39.789-136.813,44.498c-36.422,3.731-55.543,33.096-87.802,38.135
		C1336.146,245.856,1326.938,255.718,1314.422,255.001z"/>
	<path fill-rule="evenodd" clip-rule="evenodd" fill="#86AADE" d="M233.664,1932.867c-59.563-128.34-42.718-253.793,31.412-340.422
		C246.189,1706.646,231.949,1816.201,233.664,1932.867z"/>
	<path fill-rule="evenodd" clip-rule="evenodd" fill="#89ACDF" d="M3094.168,3508.657
		c-49.926,53.884-113.448,83.636-182.549,103.489C2972.866,3578.357,3034.079,3544.504,3094.168,3508.657z"/>
	<path fill-rule="evenodd" clip-rule="evenodd" fill="#B6CCEB" d="M3145.501,408.666c-3.338,0.876-7.103,0.97-8.817,4.815
		c-2.938-1.621-5.875-3.238-10.395-5.731C3134.083,403.888,3139.867,403.928,3145.501,408.666z"/>
	<path fill-rule="evenodd" clip-rule="evenodd" fill="#C0D3EE" d="M3108.078,3501.357c-1.258,1.027-3.014,3.182-5.274,4.115
		c-2.581,1.063-3.681-1.418-2.621-3.153c1.257-2.062,3.421-3.943,5.625-4.937C3107.68,3496.539,3109.751,3497.428,3108.078,3501.357
		z"/>
	<path fill-rule="evenodd" clip-rule="evenodd" fill="#FEFEFE" d="M1503.733,2215.968c-66.745,3.157-133.192-9.813-199.92-4.265
		c-50.596,4.208-101.183,5.593-151.771-0.041c-3.434-0.383-7.059-0.631-10.171-1.943c-5.495-2.318-13.605-2.859-13.968-10.477
		c-0.361-7.605,7.383-9.927,12.894-11.731c28.111-9.21,55.18-19.984,86.759-16.611c21.155,2.261,44.447-0.505,64.297-13.421
		c4.104-2.673,10.843-2.273,16.24-1.805c20.271,1.751,40.203-0.021,60.445-1.247c31.284-1.894,64.511-5.573,94.32-0.163
		c41.579,7.548,81.486-7.695,121.23-0.26c33.583,6.281,66.512-14.2,99.369,0.811c23.589-15.679,50.626-2.102,76.464-9.271
		c24.045-6.676,51.709-6.195,78.181-4.782c38.828,2.078,77.576,5.255,116.558,5.898c49.555,0.814,99.256-11.597,148.651,1.214
		c28.825-13.634,59.657,5.112,89.15-5.56c6.894-2.493,20.673-11.169,25.561,6.179c0.321,1.141,6.713,1.487,9.949,0.75
		c23.831-5.442,48.132-1.405,72.109-3.947c30.786-3.263,60.569,5.527,90.861,8.313c17.668,1.625,35.471,1.752,53.196,2.811
		c18.889,1.133,38.537-2.529,54.971,12.18c4.919,4.403,13.915,2.024,19.74-2.094c25.424-17.98,55.26-12.477,82.223-11.271
		c27.182,1.214,54.094,1.251,80.389-2.896c51.903-8.188,103.397-4.428,155.205-1.251c27.544,1.687,55.545,2.811,82.859-0.191
		c44.975-4.941,84.602,10.358,124.501,26.555c3.895,1.58,8.086,4.179,7.96,8.696c-0.204,7.21-6.984,7.667-12.037,9.259
		c-29.598,9.316-60.521,8.257-90.841,9.593c-55.29,2.432-110.707,2.354-166.073,2.428c-17.279,0.024-34.681-2.016-51.819-4.526
		c-44.483-6.513-88.55-2.297-132.813,2.632c-58.862,6.554-118.092-3.304-176.969,2.366c-29.803,2.868-61.194,2.306-88.981-0.745
		c-44.431-4.876-88.179-2.994-132.165-3.65c-29.106-0.436-58.269,2.069-87.385,3.622c-21.078,1.124-41.37-1.287-61.144-9.263
		c-21.387-8.627-43.968-1.543-64.129,2.224c-65.708,12.277-131.53,4.024-197.185,6.672
		C1694.906,2210.616,1599.306,2212.974,1503.733,2215.968z"/>
	<path fill-rule="evenodd" clip-rule="evenodd" fill="#FEFEFE" d="M2164.331,1772.746c8.399-36.417,17.422-72.71,24.848-109.326
		c2.507-12.359,7.992-15.149,19.577-15.295c47.133-0.587,46.977-0.982,36.283,45.386c-19.904,86.328-39.947,172.631-59.084,259.129
		c-3.316,14.99-7.984,21.83-25.101,21.316c-42.793-1.275-42.82-0.301-42.105-44.001c0.283-17.336,0.554-34.673,0.831-52.009
		c4.076-16.913-0.599-34.009,1.035-48.303c-0.043,2.521-2.035,6.941-5.426,10.791c-8.728,38.506-17.821,76.938-25.979,115.563
		c-2.666,12.624-7.344,18.057-21.599,17.895c-45.787-0.517-46.286,0.069-36.142-44.518c20.131-88.482,41.292-176.729,60.887-265.325
		c3.016-13.642,8.756-15.878,20.844-15.911c48.785-0.126,48.779-0.468,47.72,47.598c-0.32,14.57-0.602,29.145-0.9,43.72
		c-4.44,15.455,1.177,31.239-0.746,42.632C2159.382,1781.259,2160.844,1776.563,2164.331,1772.746z"/>
	<path fill-rule="evenodd" clip-rule="evenodd" fill="#FEFEFE" d="M1592.88,1372.314c8.401-36.42,17.426-72.714,24.852-109.334
		c2.509-12.371,8.013-15.141,19.587-15.288c47.117-0.583,46.962-0.978,36.268,45.406c-19.905,86.336-39.96,172.643-59.079,259.154
		c-3.33,15.063-8.092,21.772-25.151,21.267c-42.742-1.267-42.773-0.301-42.054-44.05c0.263-15.951,0.535-31.903,0.804-47.854
		c3.385-17.34,1.287-34.685-0.167-51.37c-0.807,2.998-1.177,6.949-4.252,9.731c-8.711,38.51-17.783,76.942-25.923,115.574
		c-2.658,12.615-7.32,18.07-21.587,17.907c-45.801-0.513-46.3,0.073-36.158-44.506c20.131-88.482,41.292-176.733,60.887-265.333
		c3.016-13.638,8.748-15.882,20.842-15.915c48.789-0.126,48.783-0.468,47.724,47.598c-0.32,14.571-0.601,29.145-0.9,43.72
		c-4.44,15.455,1.175,31.239-0.752,42.673C1587.931,1380.827,1589.397,1376.131,1592.88,1372.314z"/>
	<path fill-rule="evenodd" clip-rule="evenodd" fill="#FEFEFE" d="M2561.451,1840.409c-8.709,38.51-17.783,76.943-25.924,115.571
		c-2.658,12.619-7.319,18.073-21.585,17.911c-45.803-0.513-46.302,0.073-36.159-44.506c20.131-88.482,41.292-176.732,60.887-265.333
		c3.017-13.638,8.748-15.882,20.842-15.915c48.789-0.126,48.783-0.468,47.725,47.598c-0.32,14.57-0.602,29.145-0.9,43.72
		c-4.44,15.455,1.177,31.239-0.746,42.632c0.106-0.827,1.568-5.523,5.056-9.34c8.399-36.42,17.426-72.714,24.85-109.334
		c2.507-12.371,8.013-15.141,19.587-15.287c47.119-0.583,46.962-0.978,36.268,45.406c-19.904,86.335-39.958,172.643-59.079,259.153
		c-3.329,15.063-8.092,21.772-25.151,21.268c-42.742-1.263-42.772-0.302-42.053-44.05c0.262-15.951,0.535-31.903,0.804-47.854
		c3.386-17.34,1.285-34.689-0.167-51.374C2564.896,1833.671,2564.528,1837.626,2561.451,1840.409z"/>
	<path fill-rule="evenodd" clip-rule="evenodd" fill="#FEFEFE" d="M1648.742,1804.221c17.5,10.518,17.611,26.204,13.956,42.302
		c-8.597,37.85-18.493,75.419-26.473,113.391c-2.489,11.85-7.949,13.597-18.361,13.78c-48.773,0.859-48.671,1.157-37.895-45.671
		c6.216-27.019,12.2-54.086,17.984-81.199c1.701-7.976,4.672-16.937-7.697-19.915c-12.654-3.043-13.037,6.012-14.941,14.277
		c-8.868,38.498-18.569,76.82-26.585,115.493c-2.592,12.506-6.841,17.076-20.112,17.141c-49.63,0.249-49.991,0.684-38.982-47.476
		c19.768-86.491,40.643-172.732,59.519-259.415c3.579-16.432,10.627-19.304,25.045-18.807c26.363,0.908,52.787-0.151,79.168,0.424
		c32.475,0.708,46.616,14.395,44.314,46.469C1694.745,1735.91,1691.291,1777.561,1648.742,1804.221z"/>
	<path fill-rule="evenodd" clip-rule="evenodd" fill="#FEFEFE" d="M2430.369,1573.039c-13.891-0.008-27.793-0.379-41.667,0.114
		c-9.782,0.351-11.483-3.01-9.316-12.318c23.423-100.576,46.492-201.234,69.479-301.912c1.892-8.281,6.214-11.21,14.546-11.088
		c28.467,0.419,57.018-0.953,85.398,0.705c35.759,2.094,53.395,23.801,47.293,58.783c-11.078,63.5-24.926,126.548-42.571,188.509
		C2535.574,1558.872,2510.76,1573.047,2430.369,1573.039z"/>
	<path fill-rule="evenodd" clip-rule="evenodd" fill="#FEFEFE" d="M1792.091,1948.888c-21.687,20.978-44.563,32.069-73.152,25.988
		c-24.485-5.214-36.099-19.17-38.034-45.06c-1.684-22.53,3.367-44.139,8.34-65.802c9.927-43.239,19.241-86.629,29.787-129.722
		c16.362-66.853,61.196-98.059,122.654-86.401c24.096,4.575,37.832,19.67,39.665,43.973c0.469,6.216,0.391,12.497,0.216,18.742
		c-1.342,48.143-12.534,57.117-59.997,49.113c-7.061-1.189-9.955-3.275-7.978-10.636c1.974-7.356,4.01-14.819,4.699-22.351
		c0.652-7.104,4.13-16.521-5.794-19.825c-9.731-3.238-18.135,1.189-22.566,10.24c-3.617,7.385-6.141,15.471-8.027,23.508
		c-11.082,47.239-22.322,94.454-32.333,141.925c-2.279,10.811-10.782,27.435,5.915,32.139c18.072,5.092,22.171-12.004,25.907-25.552
		c2.947-10.685,5.752-21.458,7.709-32.355c1.224-6.823,8.208-17.108-7.564-17.157c-4.782-0.017-4.487-4.334-4.118-7.809
		c0.218-2.053,0.88-4.062,1.277-6.098c7.938-40.824,7.937-40.824,55.41-40.824c33.056,0,33.359,0.069,26.135,32.188
		c-10.342,45.988-21.184,91.863-31.811,137.787c-2.11,9.125-1.466,18.599-16.304,19.169c-14.607,0.562-14.99-8.334-17.385-17.479
		C1794.22,1954.599,1793.407,1952.68,1792.091,1948.888z"/>
	<path fill-rule="evenodd" clip-rule="evenodd" fill="#FEFEFE" d="M2673.988,1247.945c31.521,0.004,31.577,0.017,24.382,31.178
		c-15.767,68.258-31.844,136.45-47.128,204.818c-2.315,10.354-10.531,25.785,5.414,30.392c17.872,5.165,21.422-12.236,24.355-24.514
		c17.407-72.861,34.839-145.738,50.336-219.015c4.043-19.116,11.575-24.041,30.129-23.32c38.732,1.503,38.637,0.408,29.999,37.83
		c-15.756,68.262-30.829,136.687-47.138,204.814c-13.873,57.96-50.3,88.242-101.438,86.291
		c-44.896-1.715-67.006-27.121-58.361-71.154c10.949-55.785,24.381-111.085,36.866-166.569c4.415-19.622,9.279-39.142,13.788-58.743
		C2642.557,1247.957,2642.506,1247.945,2673.988,1247.945z"/>
	<path fill-rule="evenodd" clip-rule="evenodd" fill="#FEFEFE" d="M1918.153,1572.114c14.799-45.626,29.214-90.279,43.769-134.887
		c18.906-57.94,38.245-115.741,56.624-173.849c3.782-11.955,9.396-16.257,21.941-15.719c23.55,1.002,47.256,1.475,70.743-0.098
		c17.931-1.202,22.807,4.521,20.222,21.964c-8.122,54.824-15.169,109.802-22.57,164.732c-5.182,38.445-11.002,76.828-15.054,115.395
		c-1.824,17.361-6.92,27.443-26.302,23.431c-1.33-0.277-2.768-0.037-4.155-0.037c-35.648,0.008-35.451,0.037-30.102-34.506
		c0.989-6.383,7.576-17.417-5.141-17.792c-11.164-0.33-25.262-7.654-33.734,7.067c-0.334,0.583-0.34,1.348-0.599,1.988
		c-5.652,13.915-3.458,36.205-15.97,40.759C1960.755,1576.774,1939.728,1572.114,1918.153,1572.114z"/>
	<path fill-rule="evenodd" clip-rule="evenodd" fill="#FEFEFE" d="M2935.705,1572.766c15.012-46.286,29.428-90.939,43.982-135.546
		c18.906-57.94,38.247-115.742,56.624-173.849c3.784-11.964,9.411-16.245,21.949-15.711c23.551,1.002,47.254,1.479,70.741-0.098
		c17.945-1.206,22.797,4.542,20.214,21.972c-8.122,54.824-15.171,109.802-22.573,164.732
		c-5.181,38.449-11.002,76.828-15.053,115.399c-1.822,17.369-6.941,27.426-26.309,23.418c-1.331-0.277-2.77-0.037-4.156-0.037
		c-35.637,0.008-35.438,0.037-30.088-34.514c0.987-6.387,7.568-17.422-5.155-17.789c-11.161-0.322-25.263-7.662-33.728,7.08
		c-0.334,0.583-0.375,1.332-0.593,1.988c-4.548,13.792-9.054,27.597-13.782,41.325c-0.293,0.855-2.361,1.552-3.607,1.56
		C2975.496,1572.794,2956.816,1572.766,2935.705,1572.766z"/>
	<path fill-rule="evenodd" clip-rule="evenodd" fill="#FEFEFE" d="M2796.775,1973.479c-30.537,0-30.08,0.041-27.144-31.943
		c0.632-6.872,10.671-19.915-6.073-20.514c-12.112-0.436-27.479-7.764-34.121,12.831c-13.998,43.41-14.782,42.742-61.264,39.895
		c-11.723-0.717-11.988-4.538-8.88-13.972c32.915-99.977,65.594-200.032,98.083-300.148c2.861-8.814,7.805-11.568,16.748-11.414
		c27.052,0.469,54.147,0.978,81.16-0.146c14.951-0.623,15.518,6.424,13.966,17.695c-8.692,63.134-17.108,126.304-25.642,189.458
		c-3.896,28.827-8.112,57.614-11.701,86.479C2827.963,1973.446,2828.205,1973.479,2796.775,1973.479z"/>
	<path fill-rule="evenodd" clip-rule="evenodd" fill="#FEFEFE" d="M1439.253,1648.38c12.489,0,25.047,0.819,37.449-0.216
		c13.984-1.169,18.139,3.67,16.171,17.601c-13.756,97.391-27.286,194.819-40.023,292.344c-1.652,12.64-5.902,17.3-17.97,15.381
		c-0.676-0.11-1.387,0.025-2.08-0.02c-13.756-0.909-31.473,5.8-40.172-2.778c-7.688-7.581,1.265-24.477,2.293-37.316
		c0.458-5.707,2.479-12.855-5.717-12.277c-11.387,0.803-25.192-7.466-33.711,7.019c-1.383,2.351-2.022,5.153-2.898,7.784
		c-4.081,12.273-3.159,31.329-13.649,35.137c-15.381,5.584-34.221,3.421-51.341,1.874c-13.809-1.25-4.878-11.45-3.11-16.941
		c25.453-79.105,51.315-158.081,77.126-237.072c6.021-18.428,13.147-36.559,17.999-55.284c3.303-12.758,9.986-16.326,22.184-15.438
		C1414.225,1649.085,1426.765,1648.38,1439.253,1648.38z"/>
	<path fill-rule="evenodd" clip-rule="evenodd" fill="#FEFEFE" d="M2926.336,1377.251c-31.074,0.008-31.029,0.021-23.96-31.365
		c1.825-8.11,3.692-16.253,4.743-24.481c0.778-6.086,1.604-13.263-6.766-15.239c-7.281-1.719-14.426-0.167-18.076,6.868
		c-3.468,6.688-6.186,13.98-7.904,21.32c-12.037,51.309-23.854,102.67-35.42,154.088c-2.15,9.564-8.182,22.396,6.475,26.131
		c14.261,3.634,18.762-8.892,21.709-19.902c4.121-15.397,8.104-30.893,10.864-46.571c2.073-11.776,7.432-15.662,19.512-15.874
		c50.103-0.872,50.127-1.283,38.909,48.433c-3.666,16.241-7.42,32.44-15.487,47.292c-21.534,39.635-75.109,59.57-117.033,43.394
		c-23.864-9.21-38.909-34.229-33.155-62.893c12.825-63.883,25.035-128.112,44.822-190.24c18.189-57.113,60.545-81.419,115.25-70.73
		c29.188,5.699,44.331,24.29,43.631,54.225c-0.545,23.129-9.119,44.771-13.078,67.272c-1.287,7.32-6.104,8.33-12.104,8.277
		C2941.625,1377.19,2933.979,1377.239,2926.336,1377.251z"/>
	<path fill-rule="evenodd" clip-rule="evenodd" fill="#FEFEFE" d="M1815.746,1377.263c-32.884-0.004-32.86,0.004-25.336-31.63
		c1.764-7.422,3.328-14.888,4.929-22.347c1.532-7.128,2.401-14.493-6.611-17.023c-8.195-2.301-15.564,0.302-19.194,8.375
		c-3.106,6.904-5.362,14.298-7.108,21.687c-11.644,49.268-23.54,98.486-34.121,147.986c-2.128,9.959-10.855,25.915,5.882,30.086
		c16.342,4.077,19.196-11.789,22.453-23.96c1.075-4.021,2.293-8.012,3.232-12.065c11.776-50.921,11.758-50.828,63.814-45.944
		c7.045,0.664,12.503,0.802,9.821,10.53c-6.636,24.041-9.51,49.068-18.611,72.474c-18.532,47.655-70.515,72.458-119.442,57.085
		c-21.457-6.741-34.689-24.498-36.151-48.359c-1.607-26.204,6.865-50.738,12.78-75.635c10.888-45.846,17.487-92.886,34.208-137.144
		c19.571-51.801,61.472-74.474,113.895-63.761c30.41,6.216,47.545,30.534,42.618,61.227c-1.978,12.314-4.813,24.51-7.622,36.673
		C1847.85,1377.279,1847.769,1377.263,1815.746,1377.263z"/>
	<path fill-rule="evenodd" clip-rule="evenodd" fill="#FEFEFE" d="M1178.228,1377.259c-33.769,0.004-33.732,0.008-27.078-30.75
		c1.756-8.122,3.664-16.261,4.646-24.493c0.708-5.947,2.222-13.405-6.015-15.67c-8.094-2.224-15.383,0-19.308,8.123
		c-2.391,4.953-4.385,10.232-5.636,15.577c-12.634,54.029-25.103,108.096-37.546,162.166c-2.017,8.758-5.625,19.222,6.746,22.501
		c11.913,3.161,17.97-5.833,20.78-15.728c4.542-15.984,8.563-32.176,11.66-48.494c2.403-12.652,7.171-18.453,21.679-18.379
		c48.638,0.253,48.781-0.391,37.381,47.248c-3.22,13.45-6.171,27.223-11.575,39.85c-19.297,45.113-70.944,68.066-117.721,53.296
		c-25.505-8.053-42.096-33.911-36.51-62.743c12.267-63.313,25.045-126.683,43.928-188.354c18.255-59.626,61.42-85.22,117.163-73.806
		c28.119,5.76,43.139,24.184,42.62,52.983c-0.417,23.149-7.198,45.219-13.31,67.211
		C1204.634,1387.577,1187.222,1371.951,1178.228,1377.259z"/>
	<path fill-rule="evenodd" clip-rule="evenodd" fill="#FEFEFE" d="M1924.568,1973.475c-17.369,0.004-34.752-0.42-52.101,0.163
		c-10.334,0.346-15.09-1.214-12.192-13.553c23.463-99.888,46.512-199.869,69.311-299.912c2.132-9.356,6.444-12.082,15.609-11.963
		c34.037,0.44,68.089,0.517,102.122-0.016c11.24-0.175,14.432,2.9,12.304,14.42c-8.811,47.703-8.503,48.225-57.618,48.155
		c-13.491-0.02-18.952,3.735-22.045,17.602c-9.969,44.673-10.737,45.133,34.237,45.3c13.992,0.053,17.4,4.139,12.925,16.563
		c-0.23,0.64-0.188,1.377-0.328,2.053c-9.035,43.174-9.045,43.801-52.655,43.19c-14.514-0.199-21.568,3.275-23.067,18.673
		c-1.265,12.99-4.568,26.094-9.06,38.388c-6.077,16.624,1.285,19.593,15.302,18.082c1.373-0.147,2.786-0.126,4.165-0.004
		c14.265,1.275,39.335-4.75,40.728,2.958c3.078,17.035-5.163,36.237-9.42,54.412c-1.746,7.455-8.827,5.345-14.029,5.405
		C1960.695,1973.605,1942.632,1973.475,1924.568,1973.475z"/>
	<path fill-rule="evenodd" clip-rule="evenodd" fill="#FEFEFE" d="M1354.571,1573.043c-17.367,0-34.746-0.391-52.099,0.146
		c-10.356,0.318-15.511-1.54-12.634-13.8c23.438-99.888,46.673-199.829,69.38-299.888c2.281-10.045,7.108-11.727,15.785-11.658
		c34.037,0.269,68.087,0.452,102.118-0.098c10.849-0.175,14.232,2.037,12.161,13.854c-8.497,48.461-8.098,48.95-57.158,48.758
		c-13.092-0.053-19.534,2.823-22.652,16.986c-9.902,45.011-10.599,45.467,34.779,45.915c14.397,0.143,17.249,4.611,12.139,16.86
		c-0.263,0.631-0.265,1.36-0.409,2.041c-9.104,42.873-9.121,43.679-52.608,42.799c-15.145-0.306-20.84,4.839-22.948,18.913
		c-2.148,14.359-5.375,28.706-9.807,42.522c-3.969,12.371,0.9,14.493,11.534,13.878c9-0.525,18.056-0.106,27.086-0.106
		c26.715,0.012,26.715,0.012,20.524,26.677c-8.406,36.204-8.406,36.204-46.011,36.204
		C1374.024,1573.047,1364.299,1573.047,1354.571,1573.043z"/>
	<path fill-rule="evenodd" clip-rule="evenodd" fill="#FEFEFE" d="M2280.522,1573.043c-17.366,0-34.748-0.403-52.099,0.146
		c-10.434,0.334-15.437-1.653-12.574-13.845c23.436-99.892,46.604-199.849,69.445-299.88c1.906-8.35,5.085-11.699,13.67-11.629
		c35.429,0.297,70.865,0.358,106.291-0.049c9.198-0.106,13.09,2.334,10.041,11.752c-0.209,0.651-0.201,1.373-0.312,2.057
		c-7.839,48.526-7.841,48.954-56.911,48.759c-13.139-0.053-19.504,2.921-22.607,17.039c-9.88,44.946-10.572,45.414,34.832,45.862
		c14.516,0.143,17.126,4.758,12.079,16.909c-0.261,0.631-0.263,1.361-0.407,2.041c-9.1,42.819-9.116,43.63-52.645,42.754
		c-15.186-0.306-20.799,4.92-22.907,18.958c-2.159,14.354-5.372,28.709-9.816,42.518c-4.011,12.473,1.067,14.42,11.591,13.833
		c9.004-0.505,18.057-0.102,27.088-0.102c26.671,0.012,26.671,0.012,20.467,26.722c-8.401,36.159-8.401,36.159-46.046,36.159
		C2299.975,1573.047,2290.25,1573.047,2280.522,1573.043z"/>
	<path fill-rule="evenodd" clip-rule="evenodd" fill="#FEFEFE" d="M2350.347,1648.385c20.139,0.004,40.284,0.306,60.413-0.139
		c8.597-0.191,10.992,2.668,8.949,10.921c-3.495,14.123-6.349,28.399-9.566,42.596c-3.047,13.434-14.221,9.568-22.088,8.713
		c-14.98-1.625-20.155,4.542-23.252,18.595c-16.537,75.118-34.469,149.93-50.988,225.056c-3.227,14.668-8.557,20.135-24.394,19.797
		c-46.196-0.986-46.056-0.147-35.733-44.429c15.574-66.816,30.312-133.832,46.756-200.428c4.065-16.473-0.998-20.383-15.306-18.098
		c-17.353,2.774-18.981-4.566-15.534-19.41c10.007-43.072,9.536-43.182,53.661-43.182
		C2332.291,1648.376,2341.32,1648.376,2350.347,1648.385z"/>
	<path fill-rule="evenodd" clip-rule="evenodd" fill="#FEFEFE" d="M1865.689,1573.047c-36.616,0-36.512,0.024-29.331-30.999
		c21.078-91.077,42.347-182.113,62.812-273.329c3.371-15.027,8.407-21.789,25.557-21.271c42.278,1.279,42.235,0.244,32.805,41.06
		c-19.646,85.012-40.033,169.865-58.241,255.187C1894.454,1566.351,1887.816,1579.813,1865.689,1573.047z"/>
	<path fill-rule="evenodd" clip-rule="evenodd" fill="#FEFEFE" d="M1190.349,1573.047c15.623-68.136,30.766-134.157,45.905-200.183
		c8.043-35.076,16.473-70.066,23.919-105.269c2.937-13.895,7.736-20.612,24.143-20.155c43.425,1.202,43.606,0.249,33.701,43.264
		c-20.497,89.02-41.491,177.926-61.398,267.077c-2.688,12.045-6.935,16.228-18.946,15.491
		C1222.589,1572.342,1207.408,1573.047,1190.349,1573.047z"/>
	<path fill-rule="evenodd" clip-rule="evenodd" fill="#FEFEFE" d="M2402.354,1973.479c-31.67,0-31.774-0.024-24.54-31.418
		c20.669-89.688,41.917-179.25,61.753-269.122c4.049-18.342,9.78-26.379,30.581-25.186c38.001,2.175,37.982,0.578,29.245,38.445
		c-19.76,85.639-39.433,171.298-59.074,256.962C2433.371,1973.458,2433.456,1973.479,2402.354,1973.479z"/>
	<path fill-rule="evenodd" clip-rule="evenodd" fill="#FDFDFE" d="M2125.178,3437.324c18.696,0,37.392,0.017,56.086-0.017
		c3.465-0.004,7.386-1.336,10.318-0.143c22.951,9.333,8.416,30.729,13.979,45.862c2.938,7.98,3.367,16.677-11.281,18.213
		c-47.74,5.014-95.537,3.022-143.314,3.52c-3.161,0.032-7.053-0.868-9.348-2.815c-3.807-3.229-1.063-58.689,3.033-60.519
		c4.175-1.865,9.273-2.22,13.978-2.265c22.18-0.212,44.361-0.094,66.543-0.094
		C2125.173,3438.485,2125.175,3437.906,2125.178,3437.324z"/>
	<path fill-rule="evenodd" clip-rule="evenodd" fill="#FEFEFE" d="M3615.386,1943.686c4.86-0.008,9.795,0.554,14.561-0.114
		c14.772-2.061,19.442,4.236,18.503,18.648c-2.973,45.634-5.115,91.321-7.541,136.992c-0.361,6.771-1.604,12.88-10.361,12.119
		c-16.564-1.434-33.146-2.819-49.634-4.92c-8.328-1.063-5.968-8.392-5.42-13.369c5.006-45.528,7.259-91.211,7.332-136.98
		c0.017-10.672,4.609-13.124,13.829-12.456C3602.868,1944.057,3609.14,1943.69,3615.386,1943.686z"/>
	<path fill-rule="evenodd" clip-rule="evenodd" fill="#FEFEFE" d="M530.539,1883.114c1.466-18.232,4.245-52.795,7.035-87.358
		c0.224-2.77-0.529-6.969,0.967-8.073c17.898-13.206,36.435,1.479,54.867-0.619c9.719-1.108,9.106,6.998,8.548,14.726
		c-3.153,43.605-7.422,87.203-5.878,130.996c0.426,12.054-4.11,15.027-15.624,15.353
		C529.61,1949.58,529.621,1949.942,530.539,1883.114z"/>
	<path fill-rule="evenodd" clip-rule="evenodd" fill="#FEFEFE" d="M2198.839,437.29c2.849-49.325,2.827-49.162,50.414-42.278
		c34.311,4.965,68.653,9.784,103.073,13.895c11.06,1.319,15.166,3.865,13.495,16.644c-6.574,50.237-5.935,49.846-55.442,42.95
		c-30.207-4.208-60.596-7.471-91.01-9.662C2203.087,457.665,2193.865,453.302,2198.839,437.29z"/>
	<path fill-rule="evenodd" clip-rule="evenodd" fill="#FEFEFE" d="M3576.729,2409.658c-0.7,2.473-1.24,4.489-1.843,6.481
		c-13.866,45.854-30.136,90.812-49.018,134.866c-3.69,8.611-7.744,10.53-15.534,6.31c-1.21-0.656-2.585-1.002-3.874-1.519
		c-45.029-18.106-44.774-18.013-28-63.008c11.381-30.53,22.887-61.076,32.379-92.213c4.031-13.218,9.442-14.347,20.568-10.126
		c11.645,4.416,23.783,7.511,35.616,11.458C3571.182,2403.292,3577.418,2402.774,3576.729,2409.658z"/>
	<path fill-rule="evenodd" clip-rule="evenodd" fill="#FEFEFE" d="M3614.335,1877.485c-33.819,0.586-33.557,0.574-35.048-30.379
		c-1.77-36.697-5.43-73.26-11.554-109.473c-2.124-12.563-0.981-18.648,13.848-20.27c62.406-6.811,45.563-19.304,54.982,41.716
		c4.745,30.742,5.032,62.152,9.116,93.028c2.703,20.437-4.471,27.895-24.253,25.153
		C3618.05,1876.792,3614.514,1877.477,3614.335,1877.485z"/>
	<path fill-rule="evenodd" clip-rule="evenodd" fill="#FEFEFE" d="M1542.479,3341.013c-7.228,17.813-13.66,34.677-20.972,51.153
		c-2.664,6-8.176,3.145-12.717,1.349c-44.541-17.609-87.917-37.748-130.697-59.272c-8.782-4.419-8.976-8.969-4.652-16.016
		c0.363-0.595,0.756-1.177,1.051-1.8c21.548-45.744,21.408-45.443,67.266-24.159c28.925,13.422,58.384,25.69,87.5,38.705
		C1534.431,3333.281,1541.791,3333.681,1542.479,3341.013z"/>
	<path fill-rule="evenodd" clip-rule="evenodd" fill="#FEFEFE" d="M1208.956,3153.669c4.204,2.847,7.624,5.067,10.943,7.426
		c35.559,25.292,71.81,49.553,109.692,71.224c9.082,5.197,11.072,9.328,5.998,19.36c-24.216,47.867-24.078,48.352-69.199,19.377
		c-28.534-18.318-56.162-38.045-84.604-56.51c-9.961-6.465-11.008-11.984-3.292-21.084c8.487-10.008,15.593-21.182,23.414-31.765
		C1203.852,3159.066,1206.227,3156.752,1208.956,3153.669z"/>
	<path fill-rule="evenodd" clip-rule="evenodd" fill="#FEFEFE" d="M2805.531,567.084c-8.26,15.556-16.59,32.286-25.99,48.388
		c-3.285,5.629-8.609,1.328-12.795-0.831c-40.001-20.62-82.659-35.907-122.21-56.808c-25.023-13.222,5.685-31.634,5.816-48.665
		c0.062-8.074,4.155-17.239,17.895-11.43c43.98,18.591,87.666,37.732,129.976,59.899
		C2801.655,559.435,2806.541,560.241,2805.531,567.084z"/>
	<path fill-rule="evenodd" clip-rule="evenodd" fill="#FEFEFE" d="M1909.028,447.208c2.125,11.862-0.391,15.377-8.729,16.51
		c-45.368,6.159-90.534,13.621-135.18,23.882c-9.028,2.073-11.505-1.76-13.937-10.041c-14.988-51.015-15.391-51.622,36.632-61.822
		c33.988-6.66,68.513-10.546,102.637-16.587c10.32-1.829,14.057,1.315,14.874,10.945
		C1906.499,423.92,1908.067,437.713,1909.028,447.208z"/>
	<path fill-rule="evenodd" clip-rule="evenodd" fill="#FEFEFE" d="M2589.813,479.514c-4.584,13.32-9.976,29.809-15.981,46.074
		c-2.976,8.062-9.021,3.821-13.988,2.216c-42.266-13.642-84.723-26.607-128.159-36.062c-9.964-2.167-12.728-6.228-10.403-17.357
		c10.764-51.528,10.354-51.907,61.699-37.744c32.082,8.848,63.94,18.522,95.774,28.233
		C2584.074,466.496,2592.177,466.761,2589.813,479.514z"/>
	<path fill-rule="evenodd" clip-rule="evenodd" fill="#FEFEFE" d="M2287.631,3493.398c-14.365,3.536-17.161-4.994-17.789-16.18
		c-0.348-6.24-0.651-12.493-1.31-18.705c-3.143-29.597-3.189-29.642,25.643-32.925c37.943-4.317,75.406-11.487,112.638-19.731
		c10.91-2.416,15.64-1.071,18.807,10.871c13.178,49.7,13.705,49.94-37.536,59.644
		C2354.72,3482.689,2321.122,3487.77,2287.631,3493.398z"/>
	<path fill-rule="evenodd" clip-rule="evenodd" fill="#FEFEFE" d="M598.844,1723.176c-53.194-2.811-53.665-2.9-44.18-53.846
		c6.32-33.944,14.312-67.578,21.357-101.395c2.24-10.75,5.179-15.825,18.909-12.351c48.091,12.179,47.856,11.332,37.251,59.516
		c-6.976,31.695-13.1,63.615-18.351,95.636C612.058,1721.543,608.25,1725.547,598.844,1723.176z"/>
	<path fill-rule="evenodd" clip-rule="evenodd" fill="#FEFEFE" d="M740.725,2591.898c1.063,8.334-7.129,9.397-11.954,10.774
		c-15.896,4.542-27.628,21.027-46.331,16.428c-2.216-0.542-3.367-5.74-4.86-8.852c-19.764-41.203-37-83.452-53.142-126.198
		c-3.805-10.078-2.564-14.347,7.872-18.42c47.217-18.428,46.838-18.644,66.099,28.379c11.798,28.799,24.512,57.227,36.835,85.81
		C736.892,2583.633,738.673,2587.389,740.725,2591.898z"/>
	<path fill-rule="evenodd" clip-rule="evenodd" fill="#FEFEFE" d="M3485.551,1269.958c8.368-2.143,9.66,3.381,11.664,7.524
		c20.797,42.995,38.934,87.118,55.551,131.872c0.48,1.291,1.377,2.941,0.963,3.976c-8.377,21.011-31.069,15.157-45.925,24.204
		c-8.137,4.953-13.577,2.146-17.155-7.414c-15.754-42.115-32.65-83.77-52.095-124.357c-1.817-3.792-6.53-9.039,0.122-12.505
		C3454.607,1284.956,3470.84,1277.225,3485.551,1269.958z"/>
	<path fill-rule="evenodd" clip-rule="evenodd" fill="#FEFEFE" d="M1106.715,819.509c-3.22,3.43-5.789,6.53-8.725,9.23
		c-32.144,29.552-64.932,58.478-93.644,91.484c-8.289,9.528-13.642,9.568-23.117,0.847c-37.243-34.273-37.823-34.16-1.941-69.378
		c24.728-24.273,50.5-47.484,75.271-71.716c7.774-7.605,12.886-7.882,19.648,0.872c8.035,10.399,17.18,19.943,25.771,29.919
		C1102.186,813.333,1104.125,816.128,1106.715,819.509z"/>
	<path fill-rule="evenodd" clip-rule="evenodd" fill="#FEFEFE" d="M609.186,2157.376c3.845,10.774-2.028,14.045-11.941,15.883
		c-49.201,9.124-49.869,9.385-56.317-40.335c-4.458-34.363-6.338-69.053-10.043-103.525c-1.155-10.754,1.491-15.141,12.954-15.043
		c15.88,0.138,34.705-6.974,46.899-0.64c14.367,7.458,4.395,28.933,7.786,44.05c3.611,16.106,3.501,33.039,5.196,49.589
		C605.412,2123.909,607.325,2140.439,609.186,2157.376z"/>
	<path fill-rule="evenodd" clip-rule="evenodd" fill="#FEFEFE" d="M2486.838,3398.085c-2.323-11.002,3.029-13.182,9.697-15.034
		c43.449-12.07,86.066-26.727,128.159-42.804c9.163-3.499,12.76-0.908,15.163,7.128c0.199,0.664,0.396,1.336,0.672,1.972
		c20.93,47.892,21.097,48.372-27.729,65.419c-32.054,11.193-64.729,20.596-97.016,31.129c-10.418,3.397-16.461,2.452-18.693-10.27
		C2494.71,3422.045,2489.885,3408.896,2486.838,3398.085z"/>
	<path fill-rule="evenodd" clip-rule="evenodd" fill="#FEFEFE" d="M3137.085,881.534c-3.757-3.303-6.923-5.845-9.809-8.668
		c-31.283-30.591-63.948-59.671-98.105-86.967c-9.499-7.589-9.437-12.351-2.475-21.528c31.478-41.5,31.493-42.021,70.447-7.821
		c26.062,22.876,51.091,46.93,76.792,70.221c6.788,6.155,9.112,10.807,0.709,18.045c-9.954,8.575-18.522,18.746-27.802,28.115
		C3144.014,875.787,3140.811,878.271,3137.085,881.534z"/>
	<path fill-rule="evenodd" clip-rule="evenodd" fill="#FEFEFE" d="M816.997,1161.695c-1.601,2.868-3.483,6.525-5.624,10.029
		c-22.776,37.28-43.889,75.484-63.079,114.715c-4.475,9.145-8.071,11.858-18.64,6.994c-47.758-21.988-48.3-21.756-23.542-67.908
		c15.389-28.685,32.915-56.246,47.744-85.199c7.683-14.998,14.799-14.937,26.685-5.764c8.735,6.737,18.858,11.654,28.112,17.76
		C811.864,1154.44,816.724,1155.385,816.997,1161.695z"/>
	<path fill-rule="evenodd" clip-rule="evenodd" fill="#FEFEFE" d="M3374.527,2827.088c-1.415,2.257-3.134,5.251-5.092,8.078
		c-26.096,37.691-53.891,74.074-83.286,109.272c-7.051,8.44-11.711,10.526-21.384,2.424c-38.195-31.98-38.234-31.365-8.026-70.111
		c20.054-25.72,39.538-51.911,58.443-78.482c6.124-8.607,10.762-10.803,19.534-3.938c10.366,8.114,21.609,15.104,32.408,22.672
		C3370.438,2819.324,3374.646,2821.051,3374.527,2827.088z"/>
	<path fill-rule="evenodd" clip-rule="evenodd" fill="#FEFEFE" d="M3629.244,2186.146c-8.361,51.37-18.09,99.587-30.111,147.339
		c-1.548,6.143-5.261,7.622-10.9,5.609c-1.308-0.469-2.617-0.937-3.953-1.315c-15.908-4.505-37.245-4.351-46.196-14.807
		c-8.776-10.249,4.572-29.479,7.308-44.95c5.548-31.386,12.092-62.6,17.283-94.039c2.06-12.473,7.426-16.42,19.566-13.658
		c12.147,2.766,24.5,4.811,36.86,6.375C3626.993,2177.698,3630.346,2181.039,3629.244,2186.146z"/>
	<path fill-rule="evenodd" clip-rule="evenodd" fill="#FEFEFE" d="M712.41,1364.681c-0.267,0.631-1.348,3.169-2.414,5.715
		c-17.09,40.844-32.512,82.323-45.381,124.667c-3.455,11.369-8.094,11.153-17.889,8.322c-49.671-14.351-50.16-14.184-33.015-62.71
		c11.513-32.587,24.587-64.625,36.459-97.089c3.242-8.868,6.835-12.225,16.293-7.451c12.324,6.22,25.349,11.039,37.871,16.893
		C708.292,1354.876,714.476,1355.581,712.41,1364.681z"/>
	<path fill-rule="evenodd" clip-rule="evenodd" fill="#FEFEFE" d="M1343.853,650.679c-6.251-0.057-7.563-4.452-9.896-7.719
		c-31.341-43.858-31.135-45.752,16.108-70.25c30.675-15.902,62.02-30.505,92.761-46.286c9.489-4.868,13.605-3.625,18.583,6.501
		c22.46,45.675,22.766,45.288-21.062,67.362c-28.396,14.302-56.467,29.255-84.667,43.944
		C1351.417,646.45,1347.237,648.829,1343.853,650.679z"/>
	<path fill-rule="evenodd" clip-rule="evenodd" fill="#FEFEFE" d="M3005.721,686.361c-2.485,3.564-4.404,6.412-6.42,9.19
		c-6.917,9.523-14.785,18.493-20.573,28.656c-7.342,12.888-13.927,12.762-25.442,4.171c-33.854-25.239-69.4-48.095-106.096-69.016
		c-9.949-5.674-11.601-10.355-5.739-20.848c25.11-44.926,24.896-45.386,68.341-17.564c28.537,18.273,56.563,37.349,84.731,56.192
		C2998.414,679.75,3001.804,683.107,3005.721,686.361z"/>
	<path fill-rule="evenodd" clip-rule="evenodd" fill="#FEFEFE" d="M3408.588,2766.219c-15.151-9.646-31.677-19.785-47.693-30.672
		c-3.469-2.359,0.428-6.489,2.016-9.072c24.386-39.626,47.061-80.193,67.143-122.169c3.574-7.475,7.859-8.615,14.441-4.497
		c1.174,0.733,2.41,1.385,3.671,1.963c46.752,21.336,47.017,21.475,22.489,66.621c-15.893,29.251-32.628,58.042-49.154,86.942
		C3418.897,2759.885,3417.434,2766.048,3408.588,2766.219z"/>
	<path fill-rule="evenodd" clip-rule="evenodd" fill="#FEFEFE" d="M852.888,1105.156c-7.709-5.011-14.715-9.475-21.63-14.074
		c-32.365-21.528-32.891-21.936-9.505-53.533c22.27-30.09,46.058-59.056,68.655-88.914c7.083-9.356,11.992-9.728,21.269-1.927
		c37.761,31.748,37.856,31.23,7.595,70.396c-19.501,25.243-38.282,51.044-57.412,76.572
		C859.046,1097.429,856.085,1101.074,852.888,1105.156z"/>
	<path fill-rule="evenodd" clip-rule="evenodd" fill="#FEFEFE" d="M891.544,2841.353c3.666,4.053,7.128,7.397,10.031,11.169
		c26.668,34.66,54.205,68.6,84.208,100.442c6.358,6.75,8.139,10.965,0.037,18.232c-48.435,43.451-31.169,44.017-72.209-1.748
		c-22.668-25.279-43.072-52.575-65.075-78.474c-7.161-8.424-6.719-13.589,2.462-19.699c10.951-7.295,21.133-15.74,31.677-23.65
		C885.351,2845.618,888.135,2843.756,891.544,2841.353z"/>
	<path fill-rule="evenodd" clip-rule="evenodd" fill="#FEFEFE" d="M559.985,2258.213c-0.493-4.729-0.898-5.687-0.59-6.078
		c13.56-17.202,34.954-10.362,51.991-16.921c10.361-3.988,11.976,3.328,13.343,10.277c8.564,43.605,19.163,86.71,32.247,129.172
		c2.798,9.087,1.513,12.985-8.331,16.676c-50.475,18.917-50.598,19.369-63.871-31.919
		C575.739,2324.5,567.583,2289.351,559.985,2258.213z"/>
	<path fill-rule="evenodd" clip-rule="evenodd" fill="#FEFEFE" d="M852.753,2786.729c-0.148,5.707-4.713,6.791-7.782,9.198
		c-42.522,33.324-42.765,33.471-71.578-12.954c-17.125-27.589-32.838-56.066-50.205-83.5c-8.031-12.685-4.778-18.277,7.617-25.031
		c40.133-21.866,39.6-22.208,63.296,17.467c16.656,27.891,34.152,55.28,51.27,82.894
		C847.912,2778.899,850.445,2783.002,852.753,2786.729z"/>
	<path fill-rule="evenodd" clip-rule="evenodd" fill="#FEFEFE" d="M2061.851,387.838c19.446,0,38.895-0.126,58.341,0.089
		c4.625,0.053,9.863-1.686,13.705,2.603c3.786,4.232,1.432,58.229-3.062,60.938c-2.731,1.646-6.674,2.293-9.912,1.931
		c-43.058-4.791-85.912,1.511-128.842,2.611c-14.609,0.371-20.475-3.866-19.184-18.253c0.371-4.114-0.188-8.326-0.485-12.477
		c-2.428-33.907-2.44-33.919,31.129-36.18c4.155-0.281,8.324-0.448,12.487-0.46c15.273-0.053,30.547-0.024,45.82-0.024
		C2061.848,388.36,2061.848,388.099,2061.851,387.838z"/>
	<path fill-rule="evenodd" clip-rule="evenodd" fill="#FEFEFE" d="M3333.523,1008.274c-1.304,8.033-7.742,10.469-12.429,14.126
		c-35.44,27.674-35.312,27.451-63.901-6.986c-21.723-26.164-43.534-52.286-66.286-77.545c-7.538-8.371-6.675-12.281,0.961-19.744
		c36.96-36.107,37.025-36.628,70.085,1.735c22.194,25.756,43.374,52.384,64.922,78.694
		C3329.458,1001.708,3331.509,1005.301,3333.523,1008.274z"/>
	<path fill-rule="evenodd" clip-rule="evenodd" fill="#FEFEFE" d="M2931.422,3258.009c-5.97,2.888-7.893,0.473-9.294-1.698
		c-9.403-14.546-18.666-29.19-27.885-43.858c-3.995-6.358,1.399-8.574,5.343-11.1c38.581-24.701,75.77-51.37,111.694-79.765
		c6.87-5.43,10.893-5.186,17.069,1.397c37.147,39.606,37.555,39.773-5.419,71.321c-27.382,20.102-55.584,39.084-83.446,58.527
		C2936.086,3255.207,2932.505,3257.316,2931.422,3258.009z"/>
	<path fill-rule="evenodd" clip-rule="evenodd" fill="#FEFEFE" d="M3618.07,1637.305c-12.553,18.208-34.352,11.312-50.74,17.805
		c-9.43,3.739-13.568-0.575-15.504-9.972c-9.064-44.038-19.338-87.806-33.334-130.561c-2.955-9.031-0.638-12.868,7.621-14.962
		c0.664-0.171,1.285-0.513,1.935-0.757c49.933-18.599,50.054-18.632,63.612,33.715
		C3600.494,1566.685,3608.907,1600.905,3618.07,1637.305z"/>
	<path fill-rule="evenodd" clip-rule="evenodd" fill="#FEFEFE" d="M1688.193,492.289c2.807,12.97-2.408,15.458-9.114,17.239
		c-43.639,11.597-86.258,26.351-128.225,42.88c-9.408,3.703-12.426,0.399-15.078-7.222c-21.638-62.197-31.689-44.302,27.505-66.547
		c32.408-12.18,65.967-21.275,98.87-32.176c8.843-2.929,13.672-2.75,15.78,8.24C1680.666,468.956,1685.525,482.806,1688.193,492.289
		z"/>
	<path fill-rule="evenodd" clip-rule="evenodd" fill="#FEFEFE" d="M1736.546,3466.005c-25.418-6.688-50.923-13.063-76.226-20.163
		c-20.629-5.793-41.015-12.444-61.504-18.733c-2.644-0.815-6.289-0.909-7.727-2.722c-14.658-18.48,6.067-32.086,7.295-48.579
		c0.601-8.086,3.931-16.583,16.169-12.407c43.241,14.75,87.13,27.296,131.612,37.764c5.48,1.288,11.047,3.194,9.216,10.966
		c-3.646,15.487-7.261,30.979-10.925,46.462C1743.479,3462.709,1742.596,3467.052,1736.546,3466.005z"/>
	<path fill-rule="evenodd" clip-rule="evenodd" fill="#FEFEFE" d="M2865.555,3291.102c0.922,8.004-4.707,9.348-8.615,11.568
		c-40.988,23.283-82.686,45.182-125.722,64.51c-6.774,3.043-10.434,3.406-14.799-3.967c-26.505-44.799-25.696-47.594,20.103-70.771
		c29.054-14.701,58.029-29.622,86.357-45.646c10.483-5.931,15.534-4.501,20.773,5.752
		C2850.574,3266.095,2858.646,3279.057,2865.555,3291.102z"/>
	<path fill-rule="evenodd" clip-rule="evenodd" fill="#FEFEFE" d="M1156.095,3114.67c-2.617,9.21-9.092,14.771-14.271,21.097
		c-24.591,30.037-25.011,30.371-54.739,4.603c-28.232-24.473-55.643-49.895-83.395-74.918c-2.055-1.854-5.692-3.927-5.646-5.825
		c0.503-20.46,20.909-26.004,30.602-39.74c4.371-6.192,9.312-11.43,18.277-3.263c33.763,30.738,68.252,60.678,102.424,90.968
		C1151.843,3109.803,1153.973,3112.426,1156.095,3114.67z"/>
	<path fill-rule="evenodd" clip-rule="evenodd" fill="#FEFEFE" d="M1247.665,634.002c5.866,0.513,7.285,4.799,9.719,8.021
		c31.141,41.255,30.984,41.02-10.998,70.657c-26.029,18.375-51.899,37.036-76.961,56.689c-9.723,7.625-14.674,8.241-23.092-2.028
		c-32.153-39.223-32.742-39.125,8.129-68.718c27.481-19.898,55.528-39.015,83.36-58.433
		C1241.203,637.827,1244.808,635.791,1247.665,634.002z"/>
	<path fill-rule="evenodd" clip-rule="evenodd" fill="#FEFEFE" d="M3370.628,1068.047c7.661-0.375,9.267,4.888,11.867,8.705
		c26.521,38.909,50.519,79.366,73.78,120.279c3.407,5.996,5.02,9.463-2.736,14.742c-44.831,30.53-44.836,30.587-72.247-15.007
		c-16.75-27.858-34.134-55.354-51.933-82.551c-5.574-8.518-6.813-13.817,3.052-19.875
		C3345.929,1086.04,3358.621,1076.394,3370.628,1068.047z"/>
	<path fill-rule="evenodd" clip-rule="evenodd" fill="#FEFEFE" d="M3113.697,3120.222c-6.951-1.153-9.482-6.611-12.987-10.676
		c-9.933-11.512-26.485-22.746-27.448-35.101c-1.047-13.405,19.676-20.758,30.157-31.532c23.255-23.898,47.479-46.856,70.5-70.975
		c7.424-7.772,11.544-8.477,19.807-0.921c38.757,35.431,39.226,35.382,1.491,72.515c-23.754,23.377-48.27,45.984-72.484,68.89
		C3119.747,3115.249,3116.509,3117.807,3113.697,3120.222z"/>
	<path fill-rule="evenodd" clip-rule="evenodd" fill="#FEFEFE" d="M1976.7,3459.932c-5.208,48.926,3.729,42.326-46.417,37.137
		c-35.058-3.625-69.867-9.629-104.909-13.486c-14.289-1.576-16.634-7.801-14.312-20.652c8.218-45.512,7.835-45.133,52.638-38.99
		c30.137,4.134,60.466,6.879,90.723,10.102C1977.881,3436.542,1977.892,3436.444,1976.7,3459.932z"/>
	<path fill-rule="evenodd" clip-rule="evenodd" fill="#FAFBFE" d="M2646.332,2434.673c-9.518,5.422-12.807-2.089-18.105-7.719
		c-13.029-13.829-33.596-13.21-45.944,0.436c-12.656,13.984-11.09,36.245,3.401,48.327c13.692,11.414,30.982,8.31,43.834-7.956
		c-2.139-3.776-6.021-1.776-8.979-2.729c-6.88-2.224-19.896,5.654-19.666-7.153c0.182-9.935,12.42-5.983,18.982-5.491
		c9.42,0.708,24.004-6.509,27.246,5.446c3.422,12.624-7.908,22.77-18.548,29.968c-21.46,14.513-50.571,7.152-62.479-15.438
		c-12.838-24.347-2.818-54.751,21.424-65.02C2612.704,2396.668,2637.295,2408.09,2646.332,2434.673z"/>
	<path fill-rule="evenodd" clip-rule="evenodd" fill="#FAFBFE" d="M1878.684,2628.909c-25.675-0.184-45.923-20.75-45.687-46.396
		c0.232-25.022,21.713-46.167,46.636-45.907c24.898,0.265,46.127,22.013,45.74,46.856
		C1924.972,2609.141,1904.47,2629.097,1878.684,2628.909z"/>
	<path fill-rule="evenodd" clip-rule="evenodd" fill="#FAFBFE" d="M1483.044,2495.44c-25.719,0.074-46.146-20.119-46.321-45.785
		c-0.173-24.925,21.135-46.47,46.027-46.539c24.903-0.065,46.335,21.32,46.35,46.246
		C1529.113,2474.963,1508.715,2495.371,1483.044,2495.44z"/>
	<path fill-rule="evenodd" clip-rule="evenodd" fill="#FAFBFE" d="M2402.458,2464.906c-11.024,0-18.563,0.126-26.091-0.053
		c-3.908-0.093-6.525-2.261-6.568-6.362c-0.042-4.249,2.842-6.028,6.648-6.208c5.533-0.252,11.189-0.933,16.597-0.122
		c8.206,1.23,20.598-5.487,23.699,5.182c2.906,9.996-4.953,19.409-13.247,26.521c-19.18,16.444-47.811,14.66-63.188-4.122
		c-15.377-18.787-12.48-50.551,6.001-65.794c18.955-15.629,48.915-13.01,63.347,5.817c3.489,4.55,9.813,10.416,3.005,15.634
		c-5.322,4.081-9.066-1.902-13.02-6.188c-14.633-15.862-33.966-16.575-47.296-2.575c-12.577,13.21-11.409,36.212,2.464,48.539
		C2368.273,2487.139,2384.885,2484.678,2402.458,2464.906z"/>
	<path fill-rule="evenodd" clip-rule="evenodd" fill="#F8F9FE" d="M2132.063,2448.625c0-3.462-0.837-7.186,0.15-10.338
		c3.542-11.308-9.678-28.123,8.401-34.025c21.805-7.116,51.77,3.707,61.682,19.52c19.551,31.19,0.265,68.804-36.437,71.069
		c-33.795,2.081-33.795,2.081-33.797-31.683C2132.063,2458.319,2132.063,2453.472,2132.063,2448.625z"/>
	<path fill-rule="evenodd" clip-rule="evenodd" fill="#F9FAFE" d="M2006.965,2592.159c0-15.206-0.051-30.412,0.033-45.614
		c0.022-4.342,0.823-8.762,6.377-8.799c5.609-0.032,6.364,4.51,6.385,8.758c0.114,24.318,0.112,48.637,0.053,72.959
		c-0.008,3.389,0.004,7.295-4.454,8.135c-4.917,0.924-7.521-2.648-9.939-6.069c-11.823-16.726-23.595-33.492-39.704-49.134
		c0,14.921,0.104,29.842-0.063,44.759c-0.053,4.615,0.857,10.636-6.381,10.696c-7.239,0.062-6.544-5.861-6.566-10.582
		c-0.104-22.93-0.104-45.858-0.01-68.788c0.017-3.967-1.004-8.965,4.214-10.529c5.882-1.768,8.664,2.872,11.455,6.88
		c11.379,16.334,22.738,32.681,34.104,49.023C2003.967,2593.287,2005.466,2592.721,2006.965,2592.159z"/>
	<path fill-rule="evenodd" clip-rule="evenodd" fill="#F9FAFE" d="M2253.013,2592.065c0-14.555-0.085-29.109,0.051-43.663
		c0.043-4.741-0.517-10.583,6.632-10.599c5.613-0.013,6.154,4.725,6.174,8.925c0.105,24.318,0.098,48.64,0.04,72.958
		c-0.008,3.438-0.214,7.308-4.66,7.976c-4.867,0.733-7.45-2.888-9.867-6.314c-11.778-16.681-23.515-33.39-39.575-48.823
		c0,14.949,0.092,29.902-0.053,44.852c-0.047,4.688,0.627,10.673-6.6,10.493c-7.096-0.179-6.332-6.118-6.354-10.823
		c-0.107-22.233-0.159-44.469,0.017-66.706c0.034-4.509-1.9-10.546,4.399-12.448c5.788-1.748,8.574,3.104,11.368,7.116
		c11.347,16.29,22.693,32.579,34.042,48.869C2250.088,2593.275,2251.551,2592.672,2253.013,2592.065z"/>
	<path fill-rule="evenodd" clip-rule="evenodd" fill="#FBFCFE" d="M2489.357,2495.403c-25.938,0.049-45.673-19.805-45.671-45.944
		c0-25.385,20.862-46.767,45.565-46.702c24.293,0.069,45.992,21.939,46.296,46.657
		C2535.854,2474.34,2514.745,2495.354,2489.357,2495.403z"/>
	<path fill-rule="evenodd" clip-rule="evenodd" fill="#F3F5FE" d="M1568.669,2494.895c-8.595,1.03-12.634-1.996-12.432-11.426
		c0.479-22.196,0.454-44.417,0.008-66.612c-0.196-9.744,3.208-14.159,13.218-13.353c10.293,0.831,20.803-1.45,30.878,2.611
		c20.226,8.147,26.982,34.522,9.603,46.917c-13.988,9.98-8.338,14.828-0.801,22.982c4.603,4.978,8.336,10.758,14.394,18.718
		c-28.566,0.098-31.656-26.787-47.765-37.076c-3.85-10.147,4.491-11.356,10.481-14.221c5.65-2.704,12.642-4.94,10.092-13.112
		c-1.566-5.019-6.854-6.66-12.039-6.387c-8.466,0.44-8.878,7.092-10.181,13.32C1570.15,2456.278,1571.5,2475.782,1568.669,2494.895z
		"/>
	<path fill-rule="evenodd" clip-rule="evenodd" fill="#F9FAFE" d="M1838.893,2495.195c-7.346,0.444-14.096-1.768-19.603-5.943
		c-5.754-4.358-15.308-10.505-10.177-17.577c5.588-7.694,11.265,1.544,16.436,5.723c7.701,6.224,16.444,6.611,25.247,1.963
		c5.173-2.733,9.316-6.554,8.357-12.933c-0.817-5.442-5.121-7.866-10.243-8.831c-5.43-1.022-10.839-2.191-16.3-3.006
		c-15.632-2.326-27.051-9.833-24.724-26.982c2.306-16.99,15.349-23.931,31.461-24.078c5.941-0.058,12.561,1.674,17.695,4.631
		c6.136,3.532,15.607,8.905,9.854,17.125c-5.163,7.377-10.243-1.703-14.893-4.962c-6.801-4.762-13.949-5.393-21.583-1.942
		c-5.495,2.48-9.609,6.139-8.979,12.456c0.517,5.206,4.081,8.632,9.379,9.817c4.725,1.059,9.417,2.367,14.2,3.043
		c15.921,2.249,29.638,8.424,27.271,26.966C1869.991,2488.682,1855.337,2494.259,1838.893,2495.195z"/>
	<path fill-rule="evenodd" clip-rule="evenodd" fill="#FAFBFE" d="M2983.275,2495.155c-6.028,0.464-12.792-1.393-18.57-5.401
		c-6.143-4.265-15.343-10.355-10.218-17.675c6.051-8.648,11.238,1.605,16.159,5.511c7.279,5.776,15.385,6.151,23.548,2.713
		c5.285-2.232,9.579-6.159,9.358-12.571c-0.231-6.753-4.929-9.324-10.967-10.354c-5.467-0.933-10.866-2.277-16.337-3.181
		c-13.807-2.293-23.646-8.444-23.277-24.171c0.381-16.236,11.463-22.823,25.125-26.143c9.167-2.228,18.236-0.171,25.701,5.499
		c5.179,3.935,13.811,9.385,9,16.094c-4.788,6.672-10.557-0.864-15.281-4.729c-6.465-5.295-13.864-6.102-21.5-2.721
		c-5.238,2.317-10.102,5.462-9.884,12.045c0.216,6.55,4.599,9.638,10.66,10.823c4.768,0.933,9.477,2.212,14.27,2.958
		c15.139,2.354,27.039,8.306,26.385,26.074C3016.914,2484.381,3002.205,2495.167,2983.275,2495.155z"/>
	<path fill-rule="evenodd" clip-rule="evenodd" fill="#F9FAFE" d="M2309.52,2492.438c-12.907,6.648-15.907-2.599-18.09-10.399
		c-3.369-12.053-11.388-13.54-22.146-13.507c-10.72,0.032-18.825,1.299-21.958,13.593c-2.047,8.033-5.615,16.501-18.236,10.493
		c10.654-27.104,21.245-54.103,31.891-81.081c1.525-3.87,3.094-7.992,8.291-7.964c5.149,0.029,6.711,4.021,8.268,7.964
		C2288.19,2438.522,2298.869,2465.5,2309.52,2492.438z"/>
	<path fill-rule="evenodd" clip-rule="evenodd" fill="#F9FAFE" d="M2858.632,2494.662c-5.929,0.366-8.347-1.409-6.06-7.157
		c10.498-26.388,20.461-52.999,31.594-79.113c3.465-8.123,10.507-6.978,13.711,0.729c10.634,25.577,20.574,51.447,30.596,77.276
		c1.016,2.624,4.143,6.595-1.65,8.004c-6.771,1.646-10.269-1.715-12.141-7.992c-3.42-11.479-8.886-18.937-23.336-18.086
		c-11.714,0.692-19.895,2.428-23.14,15.145C2866.994,2488.214,2865.913,2495.045,2858.632,2494.662z"/>
	<path fill-rule="evenodd" clip-rule="evenodd" fill="#FBFCFE" d="M2293.845,2582.818c0-2.77,0-5.544,0-8.313
		c0-39.789,4.698-43.63,45.072-37.271c4.183,0.66,8.831,0.55,9.108,6.065c0.362,7.259-5.41,6.766-10.166,6.913
		c-6.23,0.191-12.488,0.383-18.705,0.033c-8.509-0.481-12.777,2.33-12.541,11.707c0.211,8.44,0.619,15.333,11.739,14.938
		c7.604-0.273,15.24-0.004,22.85,0.342c3.784,0.171,6.562,2.212,6.452,6.428c-0.112,4.188-2.884,6.057-6.746,6.179
		c-6.922,0.212-13.88,0.636-20.77,0.171c-9.471-0.639-13.658,2.379-13.638,12.733c0.022,10.184,4.118,12.017,13.403,13.279
		c9.405,1.279,26.568-8.807,26.75,7.043c0.116,10.294-17.363,3.353-26.752,5.259c-22.379,4.55-29.377-5.927-26.2-26.815
		C2294.629,2595.414,2293.845,2589.055,2293.845,2582.818z"/>
	<path fill-rule="evenodd" clip-rule="evenodd" fill="#FBFCFE" d="M2051.917,2449.333c0-2.773,0-5.544,0-8.317
		c0-39.765,4.729-43.626,45.085-37.26c4.188,0.664,8.841,0.57,9.102,6.078c0.34,7.23-5.426,6.758-10.189,6.9
		c-6.23,0.191-12.487,0.387-18.703,0.033c-8.527-0.485-12.754,2.362-12.525,11.723c0.206,8.457,0.651,15.316,11.756,14.921
		c7.603-0.272,15.24,0,22.848,0.347c3.79,0.171,6.558,2.232,6.438,6.44c-0.118,4.183-2.902,6.045-6.762,6.163
		c-6.92,0.216-13.88,0.635-20.768,0.171c-9.487-0.648-13.64,2.411-13.622,12.75c0.017,10.2,4.147,11.996,13.416,13.263
		c9.399,1.291,26.563-8.823,26.733,7.055c0.11,10.273-17.369,3.34-26.762,5.251c-22.402,4.554-29.354-5.964-26.188-26.832
		C2052.699,2461.924,2051.917,2455.569,2051.917,2449.333z"/>
	<path fill-rule="evenodd" clip-rule="evenodd" fill="#FAFBFE" d="M2787.885,2495.102c-19.527-0.22-37.449-14.448-42.416-33.662
		c-5.257-20.339,5.118-43.736,23.477-52.954c17.605-8.835,38.412-5.125,50.995,9.805c4.009,4.753,12.318,11.063,5.45,17.022
		c-6.486,5.634-9.771-3.85-13.863-7.963c-10.27-10.334-22.288-14.053-35.765-7.035c-12.699,6.611-19.815,17.227-18.522,32.025
		c1.283,14.676,9.761,24.672,23.41,28.713c14.143,4.188,25.893-1.369,34.06-13.561c3.026-4.517,6.786-8.424,11.542-4.782
		c4.996,3.821,0.789,8.835-1.805,12.555C2815.633,2487.904,2804.066,2495.848,2787.885,2495.102z"/>
	<path fill-rule="evenodd" clip-rule="evenodd" fill="#FAFBFE" d="M1784.535,2488.132c0.416,4.481-1.022,6.061-4.365,6.538
		c-6.24,0.888-8.819-3.152-10.562-7.825c-3.646-9.78-6.039-19.141-20.542-18.505c-12.802,0.558-23.293,1.083-26.385,16.273
		c-1.348,6.627-5.499,12.855-12.895,9.499c-8.021-3.642-0.735-9.817,0.792-13.96c8.379-22.701,17.52-45.129,26.591-67.573
		c2.651-6.563,8.91-15.756,13.796-5.813C1764.046,2433.386,1773.854,2461.61,1784.535,2488.132z"/>
	<path fill-rule="evenodd" clip-rule="evenodd" fill="#FBFBFE" d="M1964.463,2449.02c-0.004-5.556-1.033-11.353,0.21-16.615
		c2.581-10.929-10.135-29.602,16.021-29.076c30.308,0.607,45.314,9.096,46.154,29.932c0.708,17.65-11.422,31.361-31.3,31.385
		c-14.55,0.021-20.32,4.228-18.344,18.815c0.586,4.322,1.566,10.681-5.815,10.938c-9.159,0.313-6.652-7.125-6.809-12.041
		C1964.225,2471.252,1964.47,2460.132,1964.463,2449.02z"/>
	<path fill-rule="evenodd" clip-rule="evenodd" fill="#FBFBFE" d="M1321.99,2443.056c0.01,6.92,0.287,13.858-0.042,20.762
		c-0.951,20.004-13.043,31.182-33.561,31.341c-20.974,0.159-32.604-10.42-33.204-31.003c-0.446-15.218-0.399-30.465,0.051-45.679
		c0.159-5.386-3.134-14.343,7.025-13.898c8.245,0.358,5.534,8.203,5.654,13.128c0.356,14.53,0.364,29.072,0.079,43.606
		c-0.271,13.796,6.479,20.758,19.911,20.872c13.318,0.114,20.687-6.904,20.947-20.342c0.31-15.915,0.067-31.838,0.238-47.757
		c0.053-4.863,0.137-10.424,7.403-9.597c5.619,0.64,5.403,5.413,5.452,9.495C1322.062,2423.675,1321.982,2433.365,1321.99,2443.056z
		"/>
	<path fill-rule="evenodd" clip-rule="evenodd" fill="#F7F8FE" d="M1666.124,2494.809c-7.843,0-13.379,0.126-18.905-0.045
		c-3.66-0.11-6.831-1.364-7.012-5.747c-0.12-2.929,1.041-6.143,4.076-6.18c15.652-0.2,12.061-11.617,12.25-20.632
		c0.232-11.063,0.165-22.131-0.021-33.194c-0.077-4.635,0.917-10.11-5.648-11.719c-5.094-1.247-12.658-0.717-9.908-9.202
		c2.261-6.978,9.432-3.91,14.507-4.448c5.46-0.582,11.063-0.497,16.544-0.012c5.063,0.448,12.232-1.98,13.631,5.76
		c1.254,6.925-5.061,6.68-9.554,7.963c-5.927,1.69-6.226,6.701-6.234,11.662c-0.024,13.829-0.159,27.663,0.157,41.488
		c0.076,3.271,0.796,7.434,2.88,9.564c3.929,4.012,17.206,0.159,11.91,11.357C1681.081,2499.289,1670.8,2492.711,1666.124,2494.809z
		"/>
	<path fill-rule="evenodd" clip-rule="evenodd" fill="#FCFCFE" d="M2149.178,2628.074c-5.544,0-11.092,0.159-16.625-0.065
		c-2.992-0.118-5.021-1.854-5.243-5.104c-0.201-2.945,0.917-4.961,3.461-6.791c18.837-13.552,18.529-50.99-0.487-66.844
		c-2.358-1.963-3.35-4.224-2.662-7.145c0.733-3.104,3.029-4.505,6-4.578c7.619-0.191,15.281-0.705,22.856-0.139
		c5.597,0.416,13.786-3.581,15.933,4.998c2.21,8.839-6.148,6.876-10.871,8.367c-6.475,2.044-4.866,7.642-4.936,12.155
		c-0.212,13.862-0.16,27.732-0.012,41.597c0.049,4.672-0.762,10.212,6.405,10.832c4.805,0.416,10.69,0.11,9.776,7.316
		c-1.084,8.538-8.367,4.892-13.209,5.597c-3.395,0.497-6.92,0.098-10.387,0.098
		C2149.178,2628.27,2149.178,2628.172,2149.178,2628.074z"/>
	<path fill-rule="evenodd" clip-rule="evenodd" fill="#FCFCFE" d="M2696.558,2494.683c-5.544,0-11.09,0.114-16.63-0.045
		c-2.788-0.082-5.931-0.754-5.848-4.269c0.06-2.468,1.414-7.01,2.304-7.039c20.011-0.644,12.687-15.724,13.525-25.899
		c0.797-9.642,0.227-19.397,0.124-29.104c-0.042-4.045,0.545-8.55-4.236-10.688c-4.867-2.179-15.061,0.322-11.055-9.903
		c2.816-7.193,11.004-3.226,16.805-3.861c4.797-0.525,9.721-0.416,14.54-0.004c4.452,0.379,10.619-2.212,12.546,4.11
		c2.628,8.631-4.407,8.184-9.739,9.116c-6.855,1.194-5.848,6.746-5.895,11.406c-0.134,13.866-0.187,27.731,0.03,41.593
		c0.072,4.477-1.527,10.293,5.465,11.556c5.234,0.941,12.542-0.028,10.43,8.619c-1.914,7.829-9.22,3.438-14.071,4.518
		c-2.642,0.587-5.521,0.106-8.295,0.106C2696.558,2494.821,2696.558,2494.752,2696.558,2494.683z"/>
	<path fill-rule="evenodd" clip-rule="evenodd" fill="#F9FAFE" d="M1195.457,2403.69c8.332,0.021,16.666-0.065,24.996,0.058
		c4.365,0.065,8.668,0.92,8.518,6.586c-0.148,5.584-4.668,6.9-8.813,6.297c-19.409-2.831-19.222,9.377-18.709,22.934
		c0.55,14.563,0.261,29.161,0.022,43.74c-0.071,4.428,1.607,10.729-5.664,11.189c-9.126,0.578-6.931-6.852-7.017-11.825
		c-0.272-15.964-0.809-31.98,0.11-47.899c0.741-12.847-2.202-20.065-16.835-18.11c-4.523,0.604-10.87,0.721-10.526-6.428
		c0.312-6.489,6.074-6.501,11.002-6.546C1180.179,2403.617,1187.819,2403.67,1195.457,2403.69z"/>
	<path fill-rule="evenodd" clip-rule="evenodd" fill="#F6F7FE" d="M1380.713,2403.609c2.773-0.021,5.649-0.505,8.299,0.069
		c8.114,1.751,21.733-5.516,23.412,5.438c2.049,13.39-12.092,5.907-18.827,7.878c-8.558,2.514-7.64,8.722-7.685,14.807
		c-0.128,17.329,0.026,34.657-0.145,51.985c-0.047,4.595,0.884,10.587-6.301,10.754c-7.23,0.171-6.652-5.687-6.687-10.432
		c-0.123-16.636-0.57-33.292,0.093-49.899c0.457-11.463-1.376-19.141-15.416-17.496c-4.615,0.538-10.627,0.448-10.444-6.615
		c0.184-6.961,6.076-6.338,10.827-6.432C1365.462,2403.52,1373.089,2403.625,1380.713,2403.609z"/>
	<path fill-rule="evenodd" clip-rule="evenodd" fill="#F9FAFE" d="M2075.792,2628.4c-31.53-0.489-27.078,4.041-27.449-27.581
		c-0.193-16.611-0.186-33.231,0.065-49.842c0.077-5.063-2.08-12.607,6.075-12.994c8.46-0.399,6.66,7.238,6.75,12.31
		c0.271,15.222,1.098,30.542-0.167,45.663c-1.285,15.386,3.576,22.127,19.467,19.638c4.727-0.741,9.674-0.167,14.518-0.049
		c4.161,0.106,8.831,0.069,9.295,5.715c0.604,7.365-5.045,6.982-9.863,7.092C2088.254,2628.494,2082.021,2628.388,2075.792,2628.4z"
		/>
	<path fill-rule="evenodd" clip-rule="evenodd" fill="#5372FE" d="M1568.669,2494.895c0.287-21.442,0.859-42.889,0.733-64.327
		c-0.057-9.54,3.211-14.693,13.22-13.536c9.505,1.1,20.512,0.68,22.839,13.336c1.821,9.891-3.99,15.239-13.08,18.074
		c-6.086,1.894-16.868-4.196-16.609,9.214C1567.289,2468.902,1578.158,2483.839,1568.669,2494.895z"/>
	<path fill-rule="evenodd" clip-rule="evenodd" fill="#A4B4FE" d="M2561.451,1840.409c-1.664-7.996,3.186-14.008,6.383-20.766
		c0.417,20.974,4.615,41.846-1.966,62.4C2561.988,1868.421,2569.709,1853.566,2561.451,1840.409z"/>
	<path fill-rule="evenodd" clip-rule="evenodd" fill="#A4B4FE" d="M1543.688,1439.978c-1.446-7.927,2.642-14.172,6.644-20.689
		c0.157,20.896,4.354,41.769-2.226,62.327C1544.227,1467.99,1551.946,1453.134,1543.688,1439.978z"/>
	<path fill-rule="evenodd" clip-rule="evenodd" fill="#9EAFFE" d="M2115.189,1840.433c1.591-7.018,3.181-14.037,4.772-21.059
		c2.301,19.935,5.703,39.418-0.383,58.571C2115.674,1865.729,2123.426,1852.145,2115.189,1840.433z"/>
	<path fill-rule="evenodd" clip-rule="evenodd" fill="#9BADFE" d="M2164.331,1772.746c-1.532,7.104-3.063,14.204-4.595,21.308
		c-2.681-18.587-5.964-36.759,0.287-54.6C2163.522,1750.285,2156.742,1762.444,2164.331,1772.746z"/>
	<path fill-rule="evenodd" clip-rule="evenodd" fill="#9BADFE" d="M2610.646,1772.746c-1.532,7.104-3.063,14.204-4.595,21.308
		c-2.681-18.587-5.962-36.759,0.287-54.6C2609.837,1750.285,2603.057,1762.444,2610.646,1772.746z"/>
	<path fill-rule="evenodd" clip-rule="evenodd" fill="#9BADFE" d="M1592.88,1372.314c-1.53,7.104-3.062,14.204-4.593,21.308
		c-2.681-18.587-5.964-36.758,0.287-54.6C1592.071,1349.854,1585.293,1362.012,1592.88,1372.314z"/>
	<path fill-rule="evenodd" clip-rule="evenodd" fill="#D5DCFE" d="M2506.045,2387.019c-6.33,9.096-11.273,15.369-21.738,10.782
		C2486.901,2386.383,2494.066,2384.521,2506.045,2387.019z"/>
	<path fill-rule="evenodd" clip-rule="evenodd" fill="#F1F4FE" d="M1680.26,2387.291c-4.843,7.943-9.039,13.32-17.32,11.516
		c-0.902-0.195-2.102-3.58-1.605-4.9C1664.48,2385.54,1671.125,2385.58,1680.26,2387.291z"/>
	<path fill-rule="evenodd" clip-rule="evenodd" fill="#5574FE" d="M1630.769,1727.233c-1.695,9.564-3.799,21.85-10.247,32.815
		c-4.925,8.375-13.086,10.958-21.53,8.452c-11.175-3.315-3.13-11.287-2.222-16.974c1.742-10.905,4.638-21.626,6.866-32.461
		c2.116-10.293,9.599-10.135,17.574-9.491C1630.96,1710.361,1631.534,1717.021,1630.769,1727.233z"/>
	<path fill-rule="evenodd" clip-rule="evenodd" fill="#5371FE" d="M2529.45,1321.091c-4.579,19.54-9.247,39.056-13.72,58.616
		c-8.646,37.797-17.197,75.619-25.748,113.437c-2.43,10.741-6.631,19.87-19.116,21.654c-10.195,1.458-15.636-0.102-12.509-13.1
		c14.563-60.588,28.387-121.351,42.287-182.093c2.013-8.799,4.227-15.553,15.848-14.212
		C2526.76,1306.573,2529.212,1312.068,2529.45,1321.091z"/>
	<path fill-rule="evenodd" clip-rule="evenodd" fill="#5574FE" d="M2060.919,1335.947c-5.497,40.485-11.503,80.914-16.261,121.489
		c-2.126,18.147-15.193,11.593-23.471,10.624c-12.577-1.471-3.859-10.713-2.407-15.642c12.328-41.854,25.306-83.517,38.09-125.237
		C2064.706,1327.107,2062.47,1331.686,2060.919,1335.947z"/>
	<path fill-rule="evenodd" clip-rule="evenodd" fill="#6F88FE" d="M2060.919,1335.947c-1.35-2.92-2.701-5.845-4.049-8.766
		c1.65-6.122,3.299-12.24,6.256-23.198C2065.648,1318.582,2065.716,1327.502,2060.919,1335.947z"/>
	<path fill-rule="evenodd" clip-rule="evenodd" fill="#5574FE" d="M3078.683,1335.947c-5.497,40.485-11.503,80.914-16.261,121.489
		c-2.126,18.151-15.193,11.593-23.471,10.624c-12.577-1.471-3.859-10.713-2.407-15.642c12.33-41.854,25.306-83.517,38.09-125.237
		C3082.469,1327.107,3080.23,1331.686,3078.683,1335.947z"/>
	<path fill-rule="evenodd" clip-rule="evenodd" fill="#6F88FE" d="M3078.683,1335.947c-1.351-2.92-2.7-5.845-4.049-8.766
		c0.456-6.57,1.962-12.742,6.984-18.986C3083.412,1318.582,3083.479,1327.507,3078.683,1335.947z"/>
	<path fill-rule="evenodd" clip-rule="evenodd" fill="#5573FE" d="M2799.547,1728.117c-5.809,43.178-12.122,86.303-17.161,129.571
		c-1.892,16.261-13.086,11.536-21.53,11.182c-15.259-0.644-6.224-10.672-4.576-16.29c12.652-43.129,25.836-86.1,38.856-129.123
		C2799.113,1722.639,2801.156,1723.645,2799.547,1728.117z"/>
	<path fill-rule="evenodd" clip-rule="evenodd" fill="#7F95FE" d="M2799.547,1728.117c-1.471-1.556-2.94-3.108-4.411-4.66
		c1.452-5.691,2.902-11.381,5.651-22.16C2804.15,1714.027,2803.759,1721.164,2799.547,1728.117z"/>
	<path fill-rule="evenodd" clip-rule="evenodd" fill="#5573FE" d="M1423.063,1728.117c-5.807,43.178-12.124,86.299-17.161,129.571
		c-1.892,16.261-13.086,11.536-21.53,11.182c-15.259-0.644-6.224-10.672-4.577-16.286c12.65-43.129,25.836-86.104,38.856-129.126
		C1422.63,1722.635,1424.673,1723.645,1423.063,1728.117z"/>
	<path fill-rule="evenodd" clip-rule="evenodd" fill="#7F95FE" d="M1423.063,1728.117c-1.47-1.556-2.941-3.108-4.411-4.66
		c1.456-5.711,2.915-11.426,5.652-22.164C1427.665,1714.027,1427.275,1721.164,1423.063,1728.117z"/>
	<path fill-rule="evenodd" clip-rule="evenodd" fill="#5371FE" d="M1911.269,2583.816c-0.308,18.265-15.577,32.848-33.546,32.037
		c-17.037-0.77-30.738-15.45-30.671-32.86c0.071-18.387,14.956-33.663,32.526-33.385
		C1897.317,2549.894,1911.583,2565.291,1911.269,2583.816z"/>
	<path fill-rule="evenodd" clip-rule="evenodd" fill="#5371FE" d="M1482.737,2482.421c-17.878-0.078-32.4-15.406-31.936-33.704
		c0.446-17.584,14.344-32.074,31.245-32.566c17.713-0.521,32.65,14.403,32.944,32.917
		C1515.283,2467.447,1500.731,2482.499,1482.737,2482.421z"/>
	<path fill-rule="evenodd" clip-rule="evenodd" fill="#5674FE" d="M2143.988,2449.231c7.026-10.375-11.139-32.151,16.219-32.343
		c20.841-0.146,35.893,13.353,36.316,31.919c0.436,19.125-13.848,32.583-34.742,33.271
		C2132.465,2483.049,2150.887,2460.087,2143.988,2449.231z"/>
	<path fill-rule="evenodd" clip-rule="evenodd" fill="#5372FE" d="M2522.338,2450.519c-0.448,17.21-17.34,32.75-34.652,31.878
		c-16.98-0.855-31.011-15.772-31.001-32.958c0.011-17.997,15.425-33.508,33.052-33.268
		C2506.657,2416.404,2522.786,2433.394,2522.338,2450.519z"/>
	<path fill-rule="evenodd" clip-rule="evenodd" fill="#6983FE" d="M2269.75,2430.168c2.956,8.509,12.571,15.723,5.479,24.815
		c-2.454,3.145-9.202,3.132-11.506,0.293C2255.686,2445.361,2265.896,2438.445,2269.75,2430.168z"/>
	<path fill-rule="evenodd" clip-rule="evenodd" fill="#6983FE" d="M2890.654,2430.115c3.613,8.31,13.856,15.462,5.467,25.182
		c-2.398,2.782-9.143,2.827-11.505-0.403C2877.875,2445.663,2887.288,2438.6,2890.654,2430.115z"/>
	<path fill-rule="evenodd" clip-rule="evenodd" fill="#6B86FE" d="M1744.284,2425.605c6.847,11.255,13.556,19.504,9.122,29.056
		c-2,4.31-12.731,4.167-14.846,0.436C1733.082,2445.431,1742.746,2437.858,1744.284,2425.605z"/>
	<path fill-rule="evenodd" clip-rule="evenodd" fill="#5C79FE" d="M1977.38,2434.298c-0.456-9.507-1.658-19.043,12.726-17.699
		c11.688,1.096,23.365,3.189,23.589,17.523c0.22,13.951-10.269,17.422-22.605,18.444
		C1975.519,2453.854,1976.81,2443.907,1977.38,2434.298z"/>
</g>
</svg>
